<svg width="108" height="102" viewBox="0 0 108 102" fill="none" xmlns="http://www.w3.org/2000/svg">
<g clip-path="url(#clip0)">
<path d="M78.4085 57.8809V86.0577L83.1077 93.7387L83.4653 94.323H102.007L102.381 57.8809H78.4085Z" fill="#E6E6E6"/>
<path opacity="0.1" d="M78.4085 57.8809V86.0577L83.1077 93.7387L83.396 57.8809H78.4085Z" fill="black"/>
<path d="M33.6467 57.1294V85.3063L28.9476 92.9874L28.59 93.5715H10.0485L9.67386 57.1294H33.6467Z" fill="#E6E6E6"/>
<path opacity="0.1" d="M33.6467 57.1294V85.3063L28.9476 92.9874L28.6592 57.1294H33.6467Z" fill="black"/>
<path d="M108 56.566V58.2565H7.23911V55.8145L16.6035 50.9305H99.7594L108 56.566Z" fill="#E6E6E6"/>
<path opacity="0.1" d="M108 56.566V58.2565H7.23911V55.8145L108 56.566Z" fill="black"/>
<path d="M21.6603 65.019H17.1653L15.2924 63.704H23.7205L21.6603 65.019Z" fill="#3F3D56"/>
<path d="M21.6603 70.4665H17.1653L15.2924 69.1516H23.7205L21.6603 70.4665Z" fill="#3F3D56"/>
<path d="M21.6603 78.1683H17.1653L15.2924 76.8532H23.7205L21.6603 78.1683Z" fill="#3F3D56"/>
<path d="M21.6603 85.8699H17.1653L15.2924 84.555H23.7205L21.6603 85.8699Z" fill="#3F3D56"/>
<path d="M90.3949 65.7703H94.8899L96.7628 64.4554H88.3348L90.3949 65.7703Z" fill="#3F3D56"/>
<path d="M90.3949 71.2178H94.8899L96.7628 69.9029H88.3348L90.3949 71.2178Z" fill="#3F3D56"/>
<path d="M90.3949 78.9196H94.8899L96.7628 77.6047H88.3348L90.3949 78.9196Z" fill="#3F3D56"/>
<path d="M90.3949 86.6212H94.8899L96.7628 85.3063H88.3348L90.3949 86.6212Z" fill="#3F3D56"/>
<path d="M93.4559 18.3468H55.6149C55.427 18.3468 55.2409 18.3839 55.0672 18.456C54.8936 18.5281 54.7358 18.6339 54.6029 18.7672C54.47 18.9005 54.3646 19.0587 54.2927 19.2329C54.2208 19.407 54.1838 19.5937 54.1838 19.7822V45.3487C54.1838 45.5372 54.2208 45.7239 54.2927 45.8981C54.3646 46.0722 54.47 46.2305 54.6029 46.3637C54.7358 46.497 54.8936 46.6028 55.0672 46.6749C55.2409 46.747 55.427 46.7841 55.6149 46.7841H69.9797L69.4415 50.2303C69.4415 50.2303 66.3659 51.8691 68.5285 51.9173C70.691 51.9655 80.8788 51.9173 80.8788 51.9173C80.8788 51.9173 82.849 51.9173 79.7254 50.1821L79.2192 46.7841H93.4559C93.6438 46.7841 93.8299 46.747 94.0036 46.6749C94.1772 46.6028 94.335 46.497 94.4679 46.3638C94.6008 46.2305 94.7062 46.0722 94.7781 45.8981C94.85 45.7239 94.887 45.5372 94.887 45.3487V19.7822C94.887 19.5937 94.85 19.407 94.7781 19.2329C94.7062 19.0587 94.6008 18.9005 94.4679 18.7672C94.335 18.6339 94.1772 18.5281 94.0036 18.456C93.8299 18.3839 93.6438 18.3468 93.4559 18.3468Z" fill="#3F3D56"/>
<path d="M93.5174 19.8651H55.5534V41.1689H93.5174V19.8651Z" fill="#F2F2F2"/>
<path d="M74.5354 19.4313C74.6681 19.4313 74.7757 19.3234 74.7757 19.1903C74.7757 19.0572 74.6681 18.9493 74.5354 18.9493C74.4027 18.9493 74.2951 19.0572 74.2951 19.1903C74.2951 19.3234 74.4027 19.4313 74.5354 19.4313Z" fill="#F2F2F2"/>
<path d="M74.5354 45.7478C75.0397 45.7478 75.4485 45.3378 75.4485 44.832C75.4485 44.3263 75.0397 43.9163 74.5354 43.9163C74.0311 43.9163 73.6223 44.3263 73.6223 44.832C73.6223 45.3378 74.0311 45.7478 74.5354 45.7478Z" fill="#F2F2F2"/>
<path d="M73.1126 54.52V55.0021H47.2587V54.6164L47.2942 54.52L47.9314 52.7849H72.584L73.1126 54.52Z" fill="#3F3D56"/>
<path d="M83.062 54.0481C83.0149 54.2501 82.8371 54.4631 82.4354 54.6646C80.9937 55.3876 78.0623 54.4718 78.0623 54.4718C78.0623 54.4718 75.8037 54.0862 75.8037 53.074C75.8671 53.0305 75.9332 52.991 76.0017 52.956C76.6078 52.6343 78.6175 51.8407 82.1809 52.9896C82.4434 53.0722 82.6779 53.2263 82.8582 53.4348C82.9381 53.5136 82.9983 53.6102 83.0337 53.7169C83.0691 53.8235 83.0788 53.937 83.062 54.0481Z" fill="#3F3D56"/>
<path opacity="0.1" d="M83.062 54.0481C81.2974 54.7263 79.7246 54.7769 78.1104 53.6524C77.5 53.1998 76.7608 52.9557 76.0017 52.956C76.6078 52.6343 78.6175 51.8407 82.1809 52.9896C82.4434 53.0722 82.6779 53.2263 82.8582 53.4348C82.9381 53.5136 82.9983 53.6102 83.0337 53.7169C83.0691 53.8235 83.0788 53.937 83.062 54.0481Z" fill="black"/>
<path d="M80.8495 53.6524C81.1946 53.6524 81.4743 53.5661 81.4743 53.4596C81.4743 53.3532 81.1946 53.2668 80.8495 53.2668C80.5045 53.2668 80.2248 53.3532 80.2248 53.4596C80.2248 53.5661 80.5045 53.6524 80.8495 53.6524Z" fill="#F2F2F2"/>
<path opacity="0.1" d="M73.1126 54.52V55.0021H47.2587V54.6164L47.2942 54.52H73.1126Z" fill="black"/>
<path d="M14.3752 2.14092e-05C14.1128 -0.021586 13.85 0.0372829 13.6218 0.168828C13.3976 0.322783 13.2563 0.592498 13.1121 0.843484C12.5608 1.81456 11.8144 2.66021 10.9202 3.32686C10.2689 3.80542 9.44081 4.40212 9.55224 5.28446C9.61103 5.57585 9.71835 5.85522 9.86971 6.11083C10.4706 7.32733 12.1102 8.26744 11.9489 9.65557C12.5459 8.65323 11.7474 8.1576 12.3443 7.15526C12.6286 6.67792 13.1225 6.13909 13.5517 6.43886C13.6954 6.53923 13.7898 6.71926 13.9394 6.80733C14.2965 7.01747 14.6763 6.61572 14.9924 6.33115C16.0822 5.34987 17.6321 5.60694 18.9884 5.91269C19.6286 6.05703 20.3319 6.2464 20.7104 6.86017C21.208 7.66714 20.2376 8.53869 19.9924 9.45105C19.9724 9.52879 19.9714 9.61024 19.9896 9.68843C20.0078 9.76662 20.0447 9.83922 20.0969 9.90003C20.1492 9.96083 20.2154 10.008 20.2898 10.0376C20.3643 10.0672 20.4447 10.0782 20.5243 10.0698C20.9313 10.0295 21.4134 9.9965 21.4374 9.81739C21.9494 9.83567 22.5768 9.77751 22.7962 9.2428C22.8632 9.03123 22.8987 8.81088 22.9013 8.5889C22.9818 7.69069 23.3619 6.87126 23.6137 6.01638C23.8655 5.16149 23.975 4.15963 23.5501 3.40168C23.3984 3.1495 23.2109 2.92088 22.9934 2.72305C20.582 0.382529 17.4116 -0.0034528 14.3752 2.14092e-05Z" fill="#2F2E41"/>
<path d="M12.4733 11.4089C12.4733 11.4089 12.9977 15.7921 11.0748 16.1428C9.15193 16.4935 12.8229 22.4547 12.8229 22.4547L21.5634 23.5067L19.4657 16.4935C19.4657 16.4935 18.0672 15.9675 18.9413 12.4609C19.8153 8.95425 12.4733 11.4089 12.4733 11.4089Z" fill="#FFB8B8"/>
<path d="M7.1416 86.7134L7.84091 96.3566H11.5118L10.4631 86.7134H7.1416Z" fill="#FFB8B8"/>
<path d="M34.0623 68.479L34.5867 76.5442L38.6075 74.7909L37.0341 68.1284L34.0623 68.479Z" fill="#FFB8B8"/>
<path d="M4.51947 49.894C4.51947 49.894 4.69428 60.0631 5.74314 63.3944C6.79201 66.7257 6.61719 66.901 6.44239 67.427C6.26758 67.953 6.09276 67.6024 6.09276 68.479C6.09276 69.3557 5.74315 83.2068 6.09276 84.4341C6.44238 85.6614 5.04391 87.7654 6.09276 87.9407C7.14162 88.116 12.0363 87.9407 12.2111 86.8887C12.3859 85.8367 10.8126 85.4861 11.5119 84.7848C12.2111 84.0834 13.26 69.7063 13.26 69.7063L15.7073 59.7125L20.2524 54.4526H29.8669L32.8387 66.0244C32.8387 66.0244 31.615 69.3557 32.4891 69.3557C33.3631 69.3557 38.6074 70.4076 38.6074 66.5504C38.6074 62.6931 36.8593 51.2966 36.5097 50.9459C36.1601 50.5953 36.6845 49.368 36.1601 48.842C35.6356 48.316 29.5173 44.634 27.2448 43.9327C24.9722 43.2314 21.7843 42.3967 21.7843 42.3967L4.51947 49.894Z" fill="#2F2E41"/>
<path d="M38.6074 73.3883C38.6074 73.3883 35.9852 72.5116 34.7616 75.1416C33.5379 77.7715 34.0623 78.4729 34.0623 78.4729C34.0623 78.4729 38.083 79.8755 38.7822 79.1742C39.0864 78.8691 40.0524 78.763 41.0468 78.7407C42.5613 78.7066 42.9642 76.5576 41.5339 76.0571C41.4912 76.0422 41.448 76.0292 41.4043 76.0182C40.0059 75.6676 38.6074 73.3883 38.6074 73.3883Z" fill="#2F2E41"/>
<path d="M16.4065 14.3018C19.3029 14.3018 21.6508 11.9469 21.6508 9.04192C21.6508 6.13694 19.3029 3.782 16.4065 3.782C13.5102 3.782 11.1622 6.13694 11.1622 9.04192C11.1622 11.9469 13.5102 14.3018 16.4065 14.3018Z" fill="#FFB8B8"/>
<path d="M9.58894 18.3344C9.58894 18.3344 18.1546 20.0877 20.2523 17.2825C22.3501 14.4772 23.2241 25.1723 23.2241 25.1723L24.273 36.3935L22.6997 42.5301C22.6997 42.5301 14.4836 49.1926 11.8615 49.7186C9.23932 50.2446 5.21869 50.5953 5.21869 50.5953C5.21869 50.5953 6.44237 31.1336 6.44237 30.7829C6.44237 30.4322 9.58894 18.3344 9.58894 18.3344Z" fill="#F50057"/>
<path d="M12.194 15.0462C12.194 15.0462 10.2882 13.9512 9.76376 15.0032C9.23933 16.0552 4.34465 18.6851 3.82022 18.6851C3.29579 18.6851 4.86908 33.2376 4.16984 34.9909C3.4706 36.7442 0.149217 49.5433 2.07213 50.5953C3.99504 51.6473 2.59656 49.5433 4.51946 52.1733C6.44237 54.8032 15.8821 54.8032 16.4065 53.7512C16.931 52.6993 12.2111 44.8094 13.0851 37.4455C13.9592 30.0816 15.3577 19.9124 14.134 18.5098C12.9103 17.1071 12.194 15.0462 12.194 15.0462Z" fill="#2F2E41"/>
<path d="M18.5043 16.2305L18.7478 15.39C18.7478 15.39 26.0211 17.8085 26.3707 19.3864C26.7203 20.9644 26.5455 32.0102 25.3219 32.8869C24.0982 33.7635 22.3501 35.1662 23.5738 37.2701C24.7974 39.3741 26.1959 41.6534 27.2448 41.8287C28.2936 42.0041 30.2165 43.2314 29.6921 44.4587C29.1677 45.686 22.8745 43.4067 22.8745 43.4067C22.8745 43.4067 18.6791 40.2508 18.8539 35.3415C19.0287 30.4322 18.5043 16.2305 18.5043 16.2305Z" fill="#2F2E41"/>
<path d="M24.6226 36.9195L20.4272 44.8094C20.4272 44.8094 14.3088 51.1213 17.805 51.8226C21.3012 52.5239 23.2241 46.0367 23.2241 46.0367L27.7692 39.5495L24.6226 36.9195Z" fill="#FFB8B8"/>
<path d="M14.6307 1.37627C14.4193 1.36056 14.2075 1.40175 14.0173 1.49558C13.8454 1.62155 13.7036 1.78446 13.6025 1.97242C13.1362 2.67587 12.5284 3.27375 11.8181 3.72765C11.2879 4.0659 10.6139 4.48764 10.7046 5.11127C10.7538 5.32037 10.8415 5.51843 10.963 5.69534C11.4538 6.56385 11.6492 7.56907 11.5196 8.55889L12.9775 6.43354C13.2089 6.09616 13.6109 5.71532 13.9603 5.9272C14.0773 5.99814 14.1541 6.12538 14.2759 6.18763C14.5666 6.33616 14.8758 6.0522 15.1331 5.85107C16.0203 5.1575 17.282 5.3392 18.386 5.5553C18.9072 5.65732 19.4797 5.79117 19.7878 6.22497C20.2998 6.94588 19.7652 7.98753 20.064 8.82035C20.1477 8.76161 20.2187 8.68663 20.2729 8.59984C20.3271 8.51305 20.3634 8.41623 20.3796 8.31511C20.7964 8.32803 21.3071 8.28693 21.4857 7.90899C21.54 7.76088 21.569 7.60462 21.5713 7.44682C21.6369 6.81198 21.9463 6.23281 22.1512 5.62858C22.3562 5.02436 22.4453 4.31625 22.0994 3.78053C21.9729 3.59902 21.8201 3.43737 21.6462 3.30088C19.6833 1.64662 17.1024 1.37381 14.6307 1.37627Z" fill="#2F2E41"/>
<path d="M24.6226 18.6851L26.2513 19.1187C26.2513 19.1187 30.0417 28.8543 29.1677 35.5168C28.2936 42.1794 27.7692 40.7768 27.7692 40.7768C27.7692 40.7768 26.3707 37.6208 23.2241 38.3221L24.6226 18.6851Z" fill="#2F2E41"/>
<path d="M7.3838 95.0821C6.96225 95.6567 7.04677 96.478 6.67336 97.0851C6.34968 97.6114 5.73968 97.8873 5.33482 98.3537C5.20563 98.5086 5.09047 98.6748 4.99068 98.8502C4.61512 99.4812 4.30986 100.29 4.67974 100.924C4.97728 101.434 5.60271 101.634 6.1763 101.77C6.90129 101.942 7.65455 102.079 8.3879 101.948C9.12125 101.816 9.83798 101.366 10.0995 100.666C10.1508 100.491 10.2119 100.318 10.2825 100.149C10.6799 99.3637 11.9267 99.3552 12.3335 98.5751C12.6182 98.0293 12.3565 97.3694 12.0949 96.812L11.296 95.1096C11.0308 94.5447 9.95602 94.8696 9.39569 94.7342C8.66491 94.5576 7.90952 94.3631 7.3838 95.0821Z" fill="#2F2E41"/>
<path d="M1.5477 40.4261L8.88972 51.8226C8.88972 51.8226 13.4348 57.6085 14.8333 54.9785C16.2317 52.3486 9.93857 47.9653 9.93857 47.9653L5.2187 39.1988L1.5477 40.4261Z" fill="#FFB8B8"/>
<path d="M5.2187 19.0358L3.82022 18.6851C3.82022 18.6851 1.02326 19.5618 0.324024 23.2437C-0.375214 26.9256 0.149214 41.6534 1.02326 41.8288C1.89731 42.0041 5.34019 39.2643 5.89128 39.8452C6.44237 40.4261 4.69427 37.4455 5.2187 35.8675C5.74312 34.2895 5.2187 19.0358 5.2187 19.0358Z" fill="#2F2E41"/>
<path d="M70.9421 26.862H66.424V27.9529H70.9421V26.862Z" fill="#F50057"/>
<path d="M86.5883 26.862H84.9986V27.9529H86.5883V26.862Z" fill="#F50057"/>
<path d="M89.7678 26.862H88.178V27.9529H89.7678V26.862Z" fill="#F50057"/>
<path d="M83.3252 26.862H72.5319V27.9529H83.3252V26.862Z" fill="#F50057"/>
<path d="M65.2526 33.9111H60.7345V35.0021H65.2526V33.9111Z" fill="#F50057"/>
<path d="M80.8988 33.9111H79.3091V35.0021H80.8988V33.9111Z" fill="#F50057"/>
<path d="M84.0783 33.9111H82.4885V35.0021H84.0783V33.9111Z" fill="#F50057"/>
<path d="M77.6357 33.9111H66.8423V35.0021H77.6357V33.9111Z" fill="#F50057"/>
<path d="M83.9109 29.2956H79.3928V30.3866H83.9109V29.2956Z" fill="#F50057"/>
<path d="M90.0188 29.2956H85.5006V30.3866H90.0188V29.2956Z" fill="#F50057"/>
<path d="M62.3242 29.2956H60.7345V30.3866H62.3242V29.2956Z" fill="#F50057"/>
<path d="M65.5036 29.2956H63.9139V30.3866H65.5036V29.2956Z" fill="#F50057"/>
<path d="M77.8867 29.2956H67.0934V30.3866H77.8867V29.2956Z" fill="#F50057"/>
<path d="M74.5399 31.6453H70.0218V32.7363H74.5399V31.6453Z" fill="#F50057"/>
<path d="M68.4321 31.6453H63.9139V32.7363H68.4321V31.6453Z" fill="#F50057"/>
<path d="M62.3242 31.6453H60.7345V32.7363H62.3242V31.6453Z" fill="#F50057"/>
<path d="M90.0188 31.6453H88.429V32.7363H90.0188V31.6453Z" fill="#F50057"/>
<path d="M86.8393 31.6453H76.046V32.7363H86.8393V31.6453Z" fill="#F50057"/>
</g>
<defs>
<clipPath id="clip0">
<rect width="108" height="102" fill="white"/>
</clipPath>
</defs>
</svg>
