<svg width="311" height="182" viewBox="0 0 311 182" fill="none" xmlns="http://www.w3.org/2000/svg">
<g clip-path="url(#clip0)">
<path d="M64.673 56.9616C64.9695 57.9123 65.2321 58.8189 65.4531 59.5982L65.3153 59.6475C65.1437 58.9254 64.9252 57.9903 64.673 56.9616ZM56.4461 33.8172L56.4045 33.8406L56.4435 33.8042L56.4461 33.8172Z" fill="url(#paint0_linear)"/>
<path d="M46.3626 167.551C44.8155 168.047 43.6532 177.549 43.6532 177.549L53.2739 179.923C53.2739 179.923 60.0213 180.918 63.2273 179.923C66.4334 178.928 66.3242 176.167 61.7348 175.726C57.1455 175.284 53.8823 169.375 53.8823 169.375C53.8823 169.375 47.9097 167.055 46.3626 167.551Z" fill="#171717"/>
<path d="M35.0726 169.484C35.0959 170.245 34.9687 171.003 34.6982 171.715C33.9228 174.044 33.5946 176.498 33.7309 178.949C33.7517 179.242 33.7751 179.548 33.8011 179.869C34.1339 183.679 43.362 181.308 43.9756 180.864C44.5892 180.419 42.1555 169.484 42.1555 169.484C42.1555 169.484 34.9192 167.938 35.0726 169.484Z" fill="#171717"/>
<path d="M45.1743 31.0298C45.1767 31.0329 45.1785 31.0364 45.1795 31.0402C45.3745 31.5182 52.6212 49.27 51.3107 43.4644C51.2716 43.2917 51.2455 43.1163 51.2327 42.9397C51.1209 41.5137 51.7943 39.9447 52.8786 38.3862C53.5697 37.4123 54.3374 36.495 55.1745 35.6431C55.5932 35.2093 56.0274 34.7859 56.4668 34.3755C57.6733 33.2456 58.9292 32.2117 60.0421 31.3494C62.0416 29.7908 63.5861 28.8011 63.5861 28.8011C63.5861 28.8011 49.5711 12.4779 50.5644 19.52C50.8375 21.45 51.9763 23.3748 51.2041 25.1619C50.6973 26.2942 49.9789 27.3196 49.0875 28.1829C48.3837 28.8783 47.6168 29.507 46.7968 30.0609C46.4457 30.2973 46.1285 30.4947 45.8711 30.6454C45.4421 30.8973 45.1743 31.0298 45.1743 31.0298Z" fill="#FFB9B9"/>
<path d="M93.2308 52.0809C93.2308 52.0809 93.782 51.7744 94.6141 51.4081C97.0608 50.3431 101.947 48.7846 102.563 53.0758C103.392 58.832 97.8981 58.1696 97.8981 58.1696C96.812 57.7579 95.6991 57.4203 94.5673 57.1592C94.0108 57.0091 93.4298 56.9728 92.8589 57.0527L93.2308 52.0809Z" fill="#FFB9B9"/>
<path d="M92.3935 57.5306H94.0472C95.0093 56.2318 94.2734 51.2964 94.2734 51.2964L92.8355 51.5561L92.3935 57.5306Z" fill="#E6E6E6"/>
<path d="M62.8399 65.8637L63.1155 80.3894L64.9356 87.2392C64.9356 87.2392 65.8301 93.8682 66.9274 93.315C68.0246 92.7617 72.705 94.3358 72.705 94.3358L72.926 91.8785L71.3503 77.436L70.1334 70.2277C70.1334 70.2277 69.4417 64.565 68.9165 61.2505C68.3913 57.936 63.997 60.5621 63.997 60.5621L62.8399 65.8637Z" fill="#171717"/>
<path d="M68.1 58.658C71.0876 57.8215 74.9437 58.658 74.9437 58.658L92.3649 59.0424C95.4747 54.9408 93.3192 51.0886 93.3192 51.0886C93.3192 51.0886 84.775 50.7535 77.8507 49.7197C70.9264 48.6859 66.3657 43.5479 66.3657 43.5479L68.1 58.658Z" fill="#171717"/>
<path opacity="0.1" d="M50.5645 19.5202C49.5712 12.4782 63.5862 28.8014 63.5862 28.8014C63.5862 28.8014 62.0417 29.791 60.0421 31.3496C59.8575 31.3626 59.6729 31.3626 59.4831 31.3626C55.1954 31.3626 52.239 28.6819 50.5385 25.0453C51.2223 23.427 50.8713 21.6762 50.5645 19.5202Z" fill="black"/>
<path d="M49.3839 21.6937C49.3886 19.1573 50.4008 16.7265 52.1982 14.9352C53.9957 13.1439 56.4314 12.1386 58.9703 12.1401C61.5092 12.1417 63.9436 13.1499 65.7389 14.9434C67.5342 16.7369 68.5435 19.1689 68.545 21.7053C68.5466 24.2416 67.5403 26.6749 65.7472 28.4706C63.9541 30.2662 61.5209 31.2774 58.982 31.2821C56.4431 31.2867 54.0061 30.2844 52.2065 28.4953C50.4069 26.7062 49.3917 24.2766 49.384 21.7402C49.3839 21.7247 49.3839 21.7092 49.3839 21.6937Z" fill="#FFB9B9"/>
<path d="M44.6595 62.827L45.1795 31.03L50.7361 33.9367L55.3462 35.0277L56.5137 34.3471L56.5969 34.2978L56.7867 34.1887C56.7867 34.1887 56.8491 34.3238 56.9687 34.5705C57.9776 36.7031 62.8867 47.1324 62.7827 48.026C62.6735 49.0182 66.2851 61.5279 66.2851 61.5279L64.5431 73.3758C64.5431 73.3758 67.8479 81.6049 66.9742 84.644C66.1006 87.6832 42.2725 85.5818 42.2725 85.5818L44.6595 62.827Z" fill="#E6E6E6"/>
<path d="M53.9655 36.0096L55.8168 38.3838L56.1158 39.0773C57.1615 41.5231 57.762 44.1356 57.8892 46.7921V49.8729L58.2766 74.5628L60.4061 78.3579L60.7935 73.6614L59.9381 47.2311L58.7758 41.2567L58.1414 37.472C57.8007 36.811 57.5045 36.1281 57.2547 35.4277C56.6203 33.799 54.9874 34.2406 54.9874 34.2406L53.9655 36.0096Z" fill="#171717"/>
<path d="M45.8165 30.5129L45.8711 30.6454L46.2585 31.5961L46.6953 32.6585C47.2077 32.9845 47.6852 33.3623 48.1202 33.7858C49.5971 35.1106 51.7397 37.2406 52.8786 38.3861C53.3596 38.8693 53.6612 39.1758 53.6612 39.1758C54.2255 38.6745 54.7923 36.999 55.1745 35.6431C55.2369 35.4275 55.2915 35.2197 55.3435 35.0275C55.536 34.2924 55.653 33.7625 55.653 33.7625C54.2047 33.2455 50.8244 29.944 49.0875 28.1829C48.3837 28.8783 47.6168 29.507 46.7968 30.0609C46.698 29.7856 45.8165 30.5129 45.8165 30.5129Z" fill="#E6E6E6"/>
<path d="M57.91 34.9656C58.9942 35.6279 60.7571 36.4903 62.7125 36.589C62.7125 36.589 66.9482 38.8282 67.7334 46.491C68.5187 54.1539 71.8365 77.1866 71.8365 77.1866C71.8365 77.1866 74.7903 92.7175 72.7102 94.3306L70.3882 75.3189C70.3882 75.3189 66.3241 64.339 66.0303 62.3077C65.7703 60.4582 62.5383 50.3458 61.9714 48.5743C61.9142 48.408 61.8856 48.3145 61.8856 48.3145L58.6536 39.184L56.7867 34.1863C57.1431 34.471 57.5184 34.7313 57.91 34.9656Z" fill="#171717"/>
<path d="M34.6981 139.328C34.6981 139.328 37.9588 116.844 37.0747 113.81C36.1907 110.776 37.6832 88.3535 37.6832 88.3535L38.1746 84.148L38.4502 81.7765L38.5672 80.7842L39.1367 80.9582C44.6323 82.5575 50.2771 83.5915 55.9832 84.0442C57.248 84.13 58.5185 84.0285 59.7535 83.7428C62.0104 83.2285 66.3735 82.5973 67.1354 82.057C67.1354 82.057 67.3954 82.7558 67.7204 83.8987C68.4693 86.5404 69.5978 91.5901 68.7293 95.8917L67.4006 104.591C67.4006 104.591 66.878 113.457 65.1619 118.761L63.6433 125.995L61.6516 140.741C60.6683 144.671 59.9568 148.663 59.522 152.69C58.7966 159.377 54.6545 170.468 54.6545 170.468C54.6545 170.468 45.8503 171.684 45.5903 168.702L48.6325 145.446L51.4511 112.14C51.4511 112.14 48.3959 132.92 46.6408 137.396C46.6408 137.396 44.207 162.907 43.3775 166.837C42.5481 170.767 41.9969 171.806 41.9969 171.806C41.9969 171.806 36.8537 173.687 34.5317 170.206C34.5317 170.206 33.8687 159.88 33.3721 156.179C32.8728 152.472 34.6981 139.328 34.6981 139.328Z" fill="#171717"/>
<path d="M38.7415 89.0054L42.3817 90.7743L38.042 98.9489C36.4117 97.4293 36.6041 91.3822 36.6041 91.3822L38.7415 89.0054Z" fill="#FFB9B9"/>
<path d="M40.3069 89.0056L41.9657 90.3042L39.7555 93.6472L36.742 94.7513L36.4922 92.5407L40.3069 89.0056Z" fill="#E6E6E6"/>
<g opacity="0.1">
<path opacity="0.1" d="M67.138 82.0883C67.1294 82.0769 67.124 82.0635 67.1224 82.0493C67.0756 82.08 67.027 82.1077 66.9768 82.1324L67.138 82.0883Z" fill="black"/>
</g>
<path d="M26.1435 93.5899C28.1327 95.9096 36.8043 96.3252 36.8043 96.3252L43.5621 85.6855L45.3849 82.8178C45.3849 82.8178 47.4156 81.4099 51.2327 75.0692C55.0497 68.7285 54.9197 63.8451 54.7091 60.1981C54.4985 56.5511 52.1089 46.0699 52.1089 46.0699C51.8748 45.0112 51.5823 43.9662 51.2327 42.9398C50.4032 40.3266 49.1473 36.6952 48.1203 33.7859C47.9356 33.2612 47.7588 32.7599 47.5898 32.2923C47.2778 31.4039 48.8639 28.0193 48.8639 28.0193C48.3049 29.1388 44.7842 30.9805 43.5595 31.752C40.2573 33.8301 35.6472 34.6821 35.6472 34.6821C28.2237 35.7601 29.594 43.4229 29.594 43.4229C29.594 43.4229 29.5108 73.2094 29.9684 76.7732C30.4261 80.3371 26.1435 93.5899 26.1435 93.5899Z" fill="#171717"/>
<path opacity="0.1" d="M29.9164 43.4206C29.9164 43.4206 26.765 57.0943 25.894 65.5442C25.0229 73.9941 28.2991 79.3789 28.2991 79.3789L35.3066 94.915C37.7118 94.2968 42.6053 89.2004 42.6053 89.2004L35.5848 69.7705C35.5848 69.7705 38.1876 59.9594 39.8153 50.9224C41.443 41.8855 37.1293 37.8306 37.1293 37.8306C29.9139 35.098 29.9164 43.4206 29.9164 43.4206Z" fill="black"/>
<path d="M29.5836 43.4206C29.5836 43.4206 26.4322 57.0943 25.5611 65.5442C24.6901 73.9941 27.9663 79.3789 27.9663 79.3789L34.9868 94.915C37.392 94.2968 42.2855 89.2004 42.2855 89.2004L35.265 69.7705C35.265 69.7705 37.8704 59.9594 39.4929 50.9224C41.1154 41.8855 36.7991 37.8306 36.7991 37.8306C29.5836 35.098 29.5836 43.4206 29.5836 43.4206Z" fill="#171717"/>
<path d="M43.4322 91.6576L41.4976 97.1827L39.3421 100.136C39.3421 100.136 37.7274 101.214 37.3243 99.1984C36.9213 97.1827 42.3817 89.6133 42.3817 89.6133C43.2449 89.273 43.4322 91.6576 43.4322 91.6576Z" fill="#171717"/>
<path d="M50.1002 26.8748C50.1002 26.8748 40.09 13.1708 52.6954 10.2078C52.6954 10.2078 56.2764 4.84169 60.6764 7.48099C62.8359 8.74683 65.2997 9.4014 67.8033 9.37448C69.9351 9.37448 71.9742 10.2078 71.6035 13.5412C70.862 20.208 66.7838 19.0969 66.7838 19.0969C66.7838 19.0969 55.724 14.1466 55.3533 19.7023C54.9825 25.2579 50.1002 26.8748 50.1002 26.8748Z" fill="#171717"/>
<path d="M168 4.30448C169.19 4.30448 170.154 3.34089 170.154 2.15224C170.154 0.96359 169.19 0 168 0C166.81 0 165.845 0.96359 165.845 2.15224C165.845 3.34089 166.81 4.30448 168 4.30448Z" fill="#E6E6E6"/>
<path d="M178.905 4.30448C180.095 4.30448 181.06 3.34089 181.06 2.15224C181.06 0.96359 180.095 0 178.905 0C177.715 0 176.751 0.96359 176.751 2.15224C176.751 3.34089 177.715 4.30448 178.905 4.30448Z" fill="#E6E6E6"/>
<path d="M189.811 4.30448C191.001 4.30448 191.965 3.34089 191.965 2.15224C191.965 0.96359 191.001 0 189.811 0C188.621 0 187.656 0.96359 187.656 2.15224C187.656 3.34089 188.621 4.30448 189.811 4.30448Z" fill="#E6E6E6"/>
<path d="M200.716 4.30448C201.906 4.30448 202.871 3.34089 202.871 2.15224C202.871 0.96359 201.906 0 200.716 0C199.526 0 198.562 0.96359 198.562 2.15224C198.562 3.34089 199.526 4.30448 200.716 4.30448Z" fill="#E6E6E6"/>
<path d="M211.622 4.30448C212.812 4.30448 213.776 3.34089 213.776 2.15224C213.776 0.96359 212.812 0 211.622 0C210.432 0 209.467 0.96359 209.467 2.15224C209.467 3.34089 210.432 4.30448 211.622 4.30448Z" fill="#E6E6E6"/>
<path d="M168 15.336C169.19 15.336 170.154 14.3724 170.154 13.1837C170.154 11.9951 169.19 11.0315 168 11.0315C166.81 11.0315 165.845 11.9951 165.845 13.1837C165.845 14.3724 166.81 15.336 168 15.336Z" fill="#E6E6E6"/>
<path d="M178.905 15.336C180.095 15.336 181.06 14.3724 181.06 13.1837C181.06 11.9951 180.095 11.0315 178.905 11.0315C177.715 11.0315 176.751 11.9951 176.751 13.1837C176.751 14.3724 177.715 15.336 178.905 15.336Z" fill="#E6E6E6"/>
<path d="M189.811 15.336C191.001 15.336 191.965 14.3724 191.965 13.1837C191.965 11.9951 191.001 11.0315 189.811 11.0315C188.621 11.0315 187.656 11.9951 187.656 13.1837C187.656 14.3724 188.621 15.336 189.811 15.336Z" fill="#E6E6E6"/>
<path d="M200.716 15.336C201.906 15.336 202.871 14.3724 202.871 13.1837C202.871 11.9951 201.906 11.0315 200.716 11.0315C199.526 11.0315 198.562 11.9951 198.562 13.1837C198.562 14.3724 199.526 15.336 200.716 15.336Z" fill="#F50057"/>
<path d="M211.622 15.336C212.812 15.336 213.776 14.3724 213.776 13.1837C213.776 11.9951 212.812 11.0315 211.622 11.0315C210.432 11.0315 209.467 11.9951 209.467 13.1837C209.467 14.3724 210.432 15.336 211.622 15.336Z" fill="#E6E6E6"/>
<path d="M233.433 15.336C234.623 15.336 235.587 14.3724 235.587 13.1837C235.587 11.9951 234.623 11.0315 233.433 11.0315C232.243 11.0315 231.278 11.9951 231.278 13.1837C231.278 14.3724 232.243 15.336 233.433 15.336Z" fill="#E6E6E6"/>
<path d="M168 26.3672C169.19 26.3672 170.154 25.4036 170.154 24.215C170.154 23.0263 169.19 22.0627 168 22.0627C166.81 22.0627 165.845 23.0263 165.845 24.215C165.845 25.4036 166.81 26.3672 168 26.3672Z" fill="#E6E6E6"/>
<path d="M178.905 26.3672C180.095 26.3672 181.06 25.4036 181.06 24.215C181.06 23.0263 180.095 22.0627 178.905 22.0627C177.715 22.0627 176.751 23.0263 176.751 24.215C176.751 25.4036 177.715 26.3672 178.905 26.3672Z" fill="#E6E6E6"/>
<path d="M189.811 26.3672C191.001 26.3672 191.965 25.4036 191.965 24.215C191.965 23.0263 191.001 22.0627 189.811 22.0627C188.621 22.0627 187.656 23.0263 187.656 24.215C187.656 25.4036 188.621 26.3672 189.811 26.3672Z" fill="#E6E6E6"/>
<path d="M200.716 26.3672C201.906 26.3672 202.871 25.4036 202.871 24.215C202.871 23.0263 201.906 22.0627 200.716 22.0627C199.526 22.0627 198.562 23.0263 198.562 24.215C198.562 25.4036 199.526 26.3672 200.716 26.3672Z" fill="#E6E6E6"/>
<path d="M211.622 26.3672C212.812 26.3672 213.776 25.4036 213.776 24.215C213.776 23.0263 212.812 22.0627 211.622 22.0627C210.432 22.0627 209.467 23.0263 209.467 24.215C209.467 25.4036 210.432 26.3672 211.622 26.3672Z" fill="#E6E6E6"/>
<path d="M168 37.3985C169.19 37.3985 170.154 36.4349 170.154 35.2462C170.154 34.0576 169.19 33.094 168 33.094C166.81 33.094 165.845 34.0576 165.845 35.2462C165.845 36.4349 166.81 37.3985 168 37.3985Z" fill="#E6E6E6"/>
<path d="M178.905 37.3985C180.095 37.3985 181.06 36.4349 181.06 35.2462C181.06 34.0576 180.095 33.094 178.905 33.094C177.715 33.094 176.751 34.0576 176.751 35.2462C176.751 36.4349 177.715 37.3985 178.905 37.3985Z" fill="#E6E6E6"/>
<path d="M189.811 37.3985C191.001 37.3985 191.965 36.4349 191.965 35.2462C191.965 34.0576 191.001 33.094 189.811 33.094C188.621 33.094 187.656 34.0576 187.656 35.2462C187.656 36.4349 188.621 37.3985 189.811 37.3985Z" fill="#E6E6E6"/>
<path d="M200.716 37.3985C201.906 37.3985 202.871 36.4349 202.871 35.2462C202.871 34.0576 201.906 33.094 200.716 33.094C199.526 33.094 198.562 34.0576 198.562 35.2462C198.562 36.4349 199.526 37.3985 200.716 37.3985Z" fill="#E6E6E6"/>
<path d="M211.622 37.3985C212.812 37.3985 213.776 36.4349 213.776 35.2462C213.776 34.0576 212.812 33.094 211.622 33.094C210.432 33.094 209.467 34.0576 209.467 35.2462C209.467 36.4349 210.432 37.3985 211.622 37.3985Z" fill="#E6E6E6"/>
<path d="M222.527 37.3985C223.717 37.3985 224.682 36.4349 224.682 35.2462C224.682 34.0576 223.717 33.094 222.527 33.094C221.337 33.094 220.373 34.0576 220.373 35.2462C220.373 36.4349 221.337 37.3985 222.527 37.3985Z" fill="#E6E6E6"/>
<path d="M233.433 37.3985C234.623 37.3985 235.587 36.4349 235.587 35.2462C235.587 34.0576 234.623 33.094 233.433 33.094C232.243 33.094 231.278 34.0576 231.278 35.2462C231.278 36.4349 232.243 37.3985 233.433 37.3985Z" fill="#E6E6E6"/>
<path d="M244.338 37.3985C245.528 37.3985 246.493 36.4349 246.493 35.2462C246.493 34.0576 245.528 33.094 244.338 33.094C243.148 33.094 242.184 34.0576 242.184 35.2462C242.184 36.4349 243.148 37.3985 244.338 37.3985Z" fill="#E6E6E6"/>
<path d="M255.244 37.3985C256.434 37.3985 257.398 36.4349 257.398 35.2462C257.398 34.0576 256.434 33.094 255.244 33.094C254.054 33.094 253.089 34.0576 253.089 35.2462C253.089 36.4349 254.054 37.3985 255.244 37.3985Z" fill="#E6E6E6"/>
<path d="M266.149 37.3985C267.339 37.3985 268.304 36.4349 268.304 35.2462C268.304 34.0576 267.339 33.094 266.149 33.094C264.959 33.094 263.995 34.0576 263.995 35.2462C263.995 36.4349 264.959 37.3985 266.149 37.3985Z" fill="#E6E6E6"/>
<path d="M211.622 48.43C212.812 48.43 213.776 47.4664 213.776 46.2777C213.776 45.0891 212.812 44.1255 211.622 44.1255C210.432 44.1255 209.467 45.0891 209.467 46.2777C209.467 47.4664 210.432 48.43 211.622 48.43Z" fill="#E6E6E6"/>
<path d="M222.527 48.43C223.717 48.43 224.682 47.4664 224.682 46.2777C224.682 45.0891 223.717 44.1255 222.527 44.1255C221.337 44.1255 220.373 45.0891 220.373 46.2777C220.373 47.4664 221.337 48.43 222.527 48.43Z" fill="#F50057"/>
<path d="M233.433 48.43C234.623 48.43 235.587 47.4664 235.587 46.2777C235.587 45.0891 234.623 44.1255 233.433 44.1255C232.243 44.1255 231.278 45.0891 231.278 46.2777C231.278 47.4664 232.243 48.43 233.433 48.43Z" fill="#E6E6E6"/>
<path d="M244.338 48.43C245.528 48.43 246.493 47.4664 246.493 46.2777C246.493 45.0891 245.528 44.1255 244.338 44.1255C243.148 44.1255 242.184 45.0891 242.184 46.2777C242.184 47.4664 243.148 48.43 244.338 48.43Z" fill="#E6E6E6"/>
<path d="M255.244 48.43C256.434 48.43 257.398 47.4664 257.398 46.2777C257.398 45.0891 256.434 44.1255 255.244 44.1255C254.054 44.1255 253.089 45.0891 253.089 46.2777C253.089 47.4664 254.054 48.43 255.244 48.43Z" fill="#E6E6E6"/>
<path d="M266.149 48.43C267.339 48.43 268.304 47.4664 268.304 46.2777C268.304 45.0891 267.339 44.1255 266.149 44.1255C264.959 44.1255 263.995 45.0891 263.995 46.2777C263.995 47.4664 264.959 48.43 266.149 48.43Z" fill="#E6E6E6"/>
<path d="M211.622 59.4612C212.812 59.4612 213.776 58.4976 213.776 57.309C213.776 56.1203 212.812 55.1567 211.622 55.1567C210.432 55.1567 209.467 56.1203 209.467 57.309C209.467 58.4976 210.432 59.4612 211.622 59.4612Z" fill="#E6E6E6"/>
<path d="M222.527 59.4612C223.717 59.4612 224.682 58.4976 224.682 57.309C224.682 56.1203 223.717 55.1567 222.527 55.1567C221.337 55.1567 220.373 56.1203 220.373 57.309C220.373 58.4976 221.337 59.4612 222.527 59.4612Z" fill="#E6E6E6"/>
<path d="M233.433 59.4612C234.623 59.4612 235.587 58.4976 235.587 57.309C235.587 56.1203 234.623 55.1567 233.433 55.1567C232.243 55.1567 231.278 56.1203 231.278 57.309C231.278 58.4976 232.243 59.4612 233.433 59.4612Z" fill="#E6E6E6"/>
<path d="M244.338 59.4612C245.528 59.4612 246.493 58.4976 246.493 57.309C246.493 56.1203 245.528 55.1567 244.338 55.1567C243.148 55.1567 242.184 56.1203 242.184 57.309C242.184 58.4976 243.148 59.4612 244.338 59.4612Z" fill="#E6E6E6"/>
<path d="M255.244 59.4612C256.434 59.4612 257.398 58.4976 257.398 57.309C257.398 56.1203 256.434 55.1567 255.244 55.1567C254.054 55.1567 253.089 56.1203 253.089 57.309C253.089 58.4976 254.054 59.4612 255.244 59.4612Z" fill="#F50057"/>
<path d="M266.149 59.4612C267.339 59.4612 268.304 58.4976 268.304 57.309C268.304 56.1203 267.339 55.1567 266.149 55.1567C264.959 55.1567 263.995 56.1203 263.995 57.309C263.995 58.4976 264.959 59.4612 266.149 59.4612Z" fill="#E6E6E6"/>
<path d="M211.622 70.4925C212.812 70.4925 213.776 69.5289 213.776 68.3402C213.776 67.1516 212.812 66.188 211.622 66.188C210.432 66.188 209.467 67.1516 209.467 68.3402C209.467 69.5289 210.432 70.4925 211.622 70.4925Z" fill="#E6E6E6"/>
<path d="M222.527 70.4925C223.717 70.4925 224.682 69.5289 224.682 68.3402C224.682 67.1516 223.717 66.188 222.527 66.188C221.337 66.188 220.373 67.1516 220.373 68.3402C220.373 69.5289 221.337 70.4925 222.527 70.4925Z" fill="#E6E6E6"/>
<path d="M233.433 70.4925C234.623 70.4925 235.587 69.5289 235.587 68.3402C235.587 67.1516 234.623 66.188 233.433 66.188C232.243 66.188 231.278 67.1516 231.278 68.3402C231.278 69.5289 232.243 70.4925 233.433 70.4925Z" fill="#E6E6E6"/>
<path d="M244.338 70.4925C245.528 70.4925 246.493 69.5289 246.493 68.3402C246.493 67.1516 245.528 66.188 244.338 66.188C243.148 66.188 242.184 67.1516 242.184 68.3402C242.184 69.5289 243.148 70.4925 244.338 70.4925Z" fill="#E6E6E6"/>
<path d="M255.244 70.4925C256.434 70.4925 257.398 69.5289 257.398 68.3402C257.398 67.1516 256.434 66.188 255.244 66.188C254.054 66.188 253.089 67.1516 253.089 68.3402C253.089 69.5289 254.054 70.4925 255.244 70.4925Z" fill="#E6E6E6"/>
<path d="M266.149 70.4925C267.339 70.4925 268.304 69.5289 268.304 68.3402C268.304 67.1516 267.339 66.188 266.149 66.188C264.959 66.188 263.995 67.1516 263.995 68.3402C263.995 69.5289 264.959 70.4925 266.149 70.4925Z" fill="#E6E6E6"/>
<path d="M168 81.5239C169.19 81.5239 170.154 80.5604 170.154 79.3717C170.154 78.1831 169.19 77.2195 168 77.2195C166.81 77.2195 165.845 78.1831 165.845 79.3717C165.845 80.5604 166.81 81.5239 168 81.5239Z" fill="#E6E6E6"/>
<path d="M178.905 81.5239C180.095 81.5239 181.06 80.5604 181.06 79.3717C181.06 78.1831 180.095 77.2195 178.905 77.2195C177.715 77.2195 176.751 78.1831 176.751 79.3717C176.751 80.5604 177.715 81.5239 178.905 81.5239Z" fill="#E6E6E6"/>
<path d="M189.811 81.5239C191.001 81.5239 191.965 80.5604 191.965 79.3717C191.965 78.1831 191.001 77.2195 189.811 77.2195C188.621 77.2195 187.656 78.1831 187.656 79.3717C187.656 80.5604 188.621 81.5239 189.811 81.5239Z" fill="#E6E6E6"/>
<path d="M200.716 81.5239C201.906 81.5239 202.871 80.5604 202.871 79.3717C202.871 78.1831 201.906 77.2195 200.716 77.2195C199.526 77.2195 198.562 78.1831 198.562 79.3717C198.562 80.5604 199.526 81.5239 200.716 81.5239Z" fill="#E6E6E6"/>
<path d="M211.622 81.5239C212.812 81.5239 213.776 80.5604 213.776 79.3717C213.776 78.1831 212.812 77.2195 211.622 77.2195C210.432 77.2195 209.467 78.1831 209.467 79.3717C209.467 80.5604 210.432 81.5239 211.622 81.5239Z" fill="#E6E6E6"/>
<path d="M222.527 81.5239C223.717 81.5239 224.682 80.5604 224.682 79.3717C224.682 78.1831 223.717 77.2195 222.527 77.2195C221.337 77.2195 220.373 78.1831 220.373 79.3717C220.373 80.5604 221.337 81.5239 222.527 81.5239Z" fill="#E6E6E6"/>
<path d="M233.433 81.5239C234.623 81.5239 235.587 80.5604 235.587 79.3717C235.587 78.1831 234.623 77.2195 233.433 77.2195C232.243 77.2195 231.278 78.1831 231.278 79.3717C231.278 80.5604 232.243 81.5239 233.433 81.5239Z" fill="#E6E6E6"/>
<path d="M244.338 81.5239C245.528 81.5239 246.493 80.5604 246.493 79.3717C246.493 78.1831 245.528 77.2195 244.338 77.2195C243.148 77.2195 242.184 78.1831 242.184 79.3717C242.184 80.5604 243.148 81.5239 244.338 81.5239Z" fill="#E6E6E6"/>
<path d="M255.244 81.5239C256.434 81.5239 257.398 80.5604 257.398 79.3717C257.398 78.1831 256.434 77.2195 255.244 77.2195C254.054 77.2195 253.089 78.1831 253.089 79.3717C253.089 80.5604 254.054 81.5239 255.244 81.5239Z" fill="#E6E6E6"/>
<path d="M266.149 81.5239C267.339 81.5239 268.304 80.5604 268.304 79.3717C268.304 78.1831 267.339 77.2195 266.149 77.2195C264.959 77.2195 263.995 78.1831 263.995 79.3717C263.995 80.5604 264.959 81.5239 266.149 81.5239Z" fill="#E6E6E6"/>
<path d="M170.153 90.4114C170.158 89.2228 169.197 88.2553 168.007 88.2504C166.817 88.2456 165.849 89.2053 165.844 90.3939C165.839 91.5826 166.8 92.5501 167.99 92.5549C169.18 92.5597 170.148 91.6 170.153 90.4114Z" fill="#E6E6E6"/>
<path d="M178.905 92.5552C180.095 92.5552 181.06 91.5916 181.06 90.403C181.06 89.2143 180.095 88.2507 178.905 88.2507C177.715 88.2507 176.751 89.2143 176.751 90.403C176.751 91.5916 177.715 92.5552 178.905 92.5552Z" fill="#E6E6E6"/>
<path d="M170.153 101.443C170.158 100.254 169.197 99.2868 168.007 99.2819C166.817 99.2771 165.849 100.237 165.844 101.425C165.839 102.614 166.8 103.582 167.99 103.586C169.18 103.591 170.148 102.632 170.153 101.443Z" fill="#E6E6E6"/>
<path d="M178.905 103.587C180.095 103.587 181.06 102.623 181.06 101.434C181.06 100.246 180.095 99.2822 178.905 99.2822C177.715 99.2822 176.751 100.246 176.751 101.434C176.751 102.623 177.715 103.587 178.905 103.587Z" fill="#E6E6E6"/>
<path d="M200.716 103.587C201.906 103.587 202.871 102.623 202.871 101.434C202.871 100.246 201.906 99.2822 200.716 99.2822C199.526 99.2822 198.562 100.246 198.562 101.434C198.562 102.623 199.526 103.587 200.716 103.587Z" fill="#E6E6E6"/>
<path d="M309.419 25.3922H224.044C223.625 25.3917 223.223 25.2251 222.927 24.929C222.63 24.6329 222.464 24.2315 222.463 23.8127V2.65609C222.464 2.23735 222.63 1.8359 222.927 1.5398C223.223 1.24371 223.625 1.07715 224.044 1.07666H309.419C309.838 1.07715 310.24 1.24371 310.536 1.5398C310.833 1.8359 311 2.23735 311 2.65609V23.8127C311 24.2315 310.833 24.6329 310.536 24.929C310.24 25.2251 309.838 25.3917 309.419 25.3922ZM224.044 1.70843C223.793 1.70871 223.552 1.80864 223.374 1.9863C223.196 2.16396 223.096 2.40484 223.096 2.65609V23.8127C223.096 24.064 223.196 24.3049 223.374 24.4825C223.552 24.6602 223.793 24.7601 224.044 24.7604H309.419C309.67 24.7601 309.912 24.6602 310.089 24.4825C310.267 24.3049 310.367 24.064 310.368 23.8127V2.65609C310.367 2.40484 310.267 2.16396 310.089 1.9863C309.912 1.80864 309.67 1.70871 309.419 1.70843H224.044Z" fill="#E6E6E6"/>
<path d="M235.111 19.868C238.779 19.868 241.752 16.8981 241.752 13.2344C241.752 9.5708 238.779 6.60083 235.111 6.60083C231.444 6.60083 228.471 9.5708 228.471 13.2344C228.471 16.8981 231.444 19.868 235.111 19.868Z" fill="#F50057"/>
<path d="M250.447 8.81201C250.154 8.81201 249.872 8.9285 249.665 9.13584C249.457 9.34318 249.34 9.62439 249.34 9.91761C249.34 10.2108 249.457 10.4921 249.665 10.6994C249.872 10.9067 250.154 11.0232 250.447 11.0232H279.854C280.147 11.0232 280.429 10.9067 280.636 10.6994C280.844 10.4921 280.961 10.2108 280.961 9.91761C280.961 9.62439 280.844 9.34318 280.636 9.13584C280.429 8.9285 280.147 8.81201 279.854 8.81201H250.447Z" fill="#E6E6E6"/>
<path d="M250.447 15.4456C250.154 15.4456 249.872 15.562 249.665 15.7694C249.457 15.9767 249.34 16.2579 249.34 16.5512C249.34 16.8444 249.457 17.1256 249.665 17.3329C249.872 17.5403 250.154 17.6568 250.447 17.6568H302.621C302.914 17.6568 303.196 17.5403 303.403 17.3329C303.611 17.1256 303.727 16.8444 303.727 16.5512C303.727 16.2579 303.611 15.9767 303.403 15.7694C303.196 15.562 302.914 15.4456 302.621 15.4456H250.447Z" fill="#E6E6E6"/>
<path d="M199.697 68.3526H114.322C113.903 68.3521 113.501 68.1856 113.205 67.8895C112.908 67.5934 112.742 67.1919 112.741 66.7732V45.6165C112.742 45.1978 112.908 44.7964 113.205 44.5003C113.501 44.2042 113.903 44.0376 114.322 44.0371H199.697C200.116 44.0376 200.518 44.2042 200.814 44.5003C201.111 44.7964 201.277 45.1978 201.278 45.6165V66.7732C201.277 67.1919 201.111 67.5934 200.814 67.8895C200.518 68.1856 200.116 68.3521 199.697 68.3526ZM114.322 44.6689C114.071 44.6692 113.83 44.7691 113.652 44.9467C113.474 45.1244 113.374 45.3653 113.374 45.6165V66.7732C113.374 67.0244 113.474 67.2653 113.652 67.443C113.83 67.6206 114.071 67.7206 114.322 67.7208H199.697C199.948 67.7206 200.189 67.6206 200.367 67.443C200.545 67.2653 200.645 67.0244 200.645 66.7732V45.6165C200.645 45.3653 200.545 45.1244 200.367 44.9467C200.189 44.7691 199.948 44.6692 199.697 44.6689H114.322Z" fill="#3F3D56"/>
<path d="M125.389 62.8285C129.057 62.8285 132.029 59.8585 132.029 56.1949C132.029 52.5312 129.057 49.5613 125.389 49.5613C121.722 49.5613 118.749 52.5312 118.749 56.1949C118.749 59.8585 121.722 62.8285 125.389 62.8285Z" fill="#F50057"/>
<path d="M140.725 51.7725C140.432 51.7725 140.15 51.8889 139.942 52.0963C139.735 52.3036 139.618 52.5848 139.618 52.8781C139.618 53.1713 139.735 53.4525 139.942 53.6598C140.15 53.8672 140.432 53.9837 140.725 53.9837H171.397C171.69 53.9837 171.972 53.8672 172.179 53.6598C172.387 53.4525 172.503 53.1713 172.503 52.8781C172.503 52.5848 172.387 52.3036 172.179 52.0963C171.972 51.8889 171.69 51.7725 171.397 51.7725H140.725Z" fill="#E6E6E6"/>
<path d="M140.725 58.406C140.432 58.406 140.15 58.5225 139.942 58.7298C139.735 58.9372 139.618 59.2184 139.618 59.5116C139.618 59.8048 139.735 60.086 139.942 60.2934C140.15 60.5007 140.432 60.6172 140.725 60.6172H192.898C193.192 60.6172 193.473 60.5007 193.681 60.2934C193.888 60.086 194.005 59.8048 194.005 59.5116C194.005 59.2184 193.888 58.9372 193.681 58.7298C193.473 58.5225 193.192 58.406 192.898 58.406H140.725Z" fill="#E6E6E6"/>
<path d="M276.85 114.788H191.475C191.056 114.787 190.654 114.621 190.358 114.325C190.062 114.029 189.895 113.627 189.894 113.208V92.0518C189.895 91.6331 190.062 91.2317 190.358 90.9356C190.654 90.6395 191.056 90.4729 191.475 90.4724H276.85C277.269 90.4729 277.671 90.6395 277.968 90.9356C278.264 91.2317 278.431 91.6331 278.431 92.0518V113.208C278.431 113.627 278.264 114.029 277.968 114.325C277.671 114.621 277.269 114.787 276.85 114.788ZM191.475 91.1042C191.224 91.1045 190.983 91.2044 190.805 91.382C190.627 91.5597 190.527 91.8006 190.527 92.0518V113.208C190.527 113.46 190.627 113.701 190.805 113.878C190.983 114.056 191.224 114.156 191.475 114.156H276.85C277.102 114.156 277.343 114.056 277.521 113.878C277.698 113.701 277.799 113.46 277.799 113.208V92.0518C277.799 91.8006 277.698 91.5597 277.521 91.382C277.343 91.2044 277.102 91.1045 276.85 91.1042H191.475Z" fill="#E6E6E6"/>
<path d="M202.543 109.264C206.21 109.264 209.183 106.294 209.183 102.63C209.183 98.9663 206.21 95.9963 202.543 95.9963C198.875 95.9963 195.902 98.9663 195.902 102.63C195.902 106.294 198.875 109.264 202.543 109.264Z" fill="#F50057"/>
<path d="M217.878 98.2075C217.585 98.2075 217.303 98.324 217.096 98.5313C216.888 98.7387 216.772 99.0199 216.772 99.3131C216.772 99.6063 216.888 99.8875 217.096 100.095C217.303 100.302 217.585 100.419 217.878 100.419H246.02C246.314 100.419 246.595 100.302 246.803 100.095C247.01 99.8875 247.127 99.6063 247.127 99.3131C247.127 99.0199 247.01 98.7387 246.803 98.5313C246.595 98.324 246.314 98.2075 246.02 98.2075H217.878Z" fill="#E6E6E6"/>
<path d="M217.878 104.841C217.585 104.841 217.303 104.958 217.096 105.165C216.888 105.372 216.772 105.654 216.772 105.947C216.772 106.24 216.888 106.521 217.096 106.729C217.303 106.936 217.585 107.053 217.878 107.053H270.052C270.345 107.053 270.627 106.936 270.834 106.729C271.042 106.521 271.158 106.24 271.158 105.947C271.158 105.654 271.042 105.372 270.834 105.165C270.627 104.958 270.345 104.841 270.052 104.841H217.878Z" fill="#E6E6E6"/>
</g>
<defs>
<linearGradient id="paint0_linear" x1="60.9288" y1="59.6475" x2="60.9288" y2="33.8042" gradientUnits="userSpaceOnUse">
<stop stop-color="#808080" stop-opacity="0.25"/>
<stop offset="0.54" stop-color="#808080" stop-opacity="0.12"/>
<stop offset="1" stop-color="#808080" stop-opacity="0.1"/>
</linearGradient>
<clipPath id="clip0">
<rect width="311" height="182" fill="white"/>
</clipPath>
</defs>
</svg>
