<svg width="564" height="309" viewBox="0 0 564 309" fill="none" xmlns="http://www.w3.org/2000/svg">
<g clip-path="url(#clip0)">
<path opacity="0.1" d="M564 198.335C564.007 206.729 562.87 215.084 560.623 223.162C558.451 230.95 555.255 238.405 551.123 245.326C551.123 270.404 534.449 292.078 510.248 302.389C500.134 306.655 489.286 308.833 478.335 308.796H107.066C87.2228 308.796 68.8336 303.36 53.7525 294.1C49.4364 291.462 45.3421 288.467 41.5112 285.145C24.7489 270.519 14.3563 250.307 14.3563 227.982C4.94885 213.275 -0.0394337 196.105 -2.00009e-05 178.568C-2.00009e-05 141.848 21.3916 110.273 52.0369 96.3326C56.1063 94.4823 60.3111 92.956 64.6135 91.7675C66.1352 91.3471 67.6734 90.97 69.228 90.6363C73.3723 89.7402 77.5758 89.1547 81.8046 88.8844C83.333 88.7876 84.8695 88.7325 86.4143 88.7192H87.2622C88.968 88.7192 90.6591 88.7792 92.3402 88.8793L92.8924 87.9283C93.5694 86.7804 94.2629 85.6441 94.9729 84.5196C96.2547 82.4706 97.599 80.4517 99.0057 78.4629C100.478 76.3639 102.015 74.2983 103.615 72.2661L104.024 71.7655C104.932 70.6176 105.858 69.483 106.805 68.3618C109.763 64.8613 112.885 61.4659 116.172 58.1756C151.723 22.7967 207.418 0.0216064 270.03 0.0216064C318.749 0.0216064 363.282 13.8118 397.393 36.5968C410.316 29.172 424.914 25.276 439.762 25.2894C487.949 25.2894 527.025 65.5187 527.025 115.143C527.017 118.283 526.853 121.421 526.532 124.544C538.147 132.892 547.615 143.954 554.136 156.797C560.657 169.639 564.04 183.886 564 198.335Z" fill="#6C63FF"/>
<path opacity="0.2" d="M116.182 58.1541V68.3402H106.815C109.75 64.8431 112.872 61.4477 116.182 58.1541Z" fill="#6C63FF"/>
<path opacity="0.2" d="M133.373 55.5712H120.797V68.3402H133.373V55.5712Z" fill="#6C63FF"/>
<path opacity="0.2" d="M150.559 55.5712H137.983V68.3402H150.559V55.5712Z" fill="#6C63FF"/>
<path opacity="0.2" d="M167.751 55.5712H155.174V68.3402H167.751V55.5712Z" fill="#6C63FF"/>
<path opacity="0.2" d="M184.937 55.5712H172.36V68.3402H184.937V55.5712Z" fill="#6C63FF"/>
<path opacity="0.2" d="M202.128 55.5712H189.551V68.3402H202.128V55.5712Z" fill="#6C63FF"/>
<path d="M219.319 55.5712H206.742V68.3402H219.319V55.5712Z" fill="#6C63FF"/>
<path opacity="0.2" d="M236.505 55.5712H223.929V68.3402H236.505V55.5712Z" fill="#6C63FF"/>
<path opacity="0.2" d="M253.697 55.5712H241.12V68.3402H253.697V55.5712Z" fill="#6C63FF"/>
<path opacity="0.2" d="M270.883 55.5712H258.306V68.3402H270.883V55.5712Z" fill="#6C63FF"/>
<path d="M288.074 55.5712H275.497V68.3402H288.074V55.5712Z" fill="#6C63FF"/>
<path opacity="0.2" d="M305.265 55.5712H292.688V68.3402H305.265V55.5712Z" fill="#6C63FF"/>
<path opacity="0.2" d="M322.451 55.5712H309.875V68.3402H322.451V55.5712Z" fill="#6C63FF"/>
<path opacity="0.2" d="M339.642 55.5712H327.066V68.3402H339.642V55.5712Z" fill="#6C63FF"/>
<path opacity="0.2" d="M356.833 55.5712H344.257V68.3402H356.833V55.5712Z" fill="#6C63FF"/>
<path opacity="0.2" d="M374.02 55.5712H361.443V68.3402H374.02V55.5712Z" fill="#6C63FF"/>
<path opacity="0.2" d="M391.211 55.5712H378.634V68.3402H391.211V55.5712Z" fill="#6C63FF"/>
<path d="M408.397 55.5712H395.82V68.3402H408.397V55.5712Z" fill="#6C63FF"/>
<path d="M425.588 55.5712H413.012V68.3402H425.588V55.5712Z" fill="#6C63FF"/>
<path opacity="0.2" d="M442.779 55.5712H430.203V68.3402H442.779V55.5712Z" fill="#6C63FF"/>
<path opacity="0.2" d="M459.966 55.5712H447.389V68.3402H459.966V55.5712Z" fill="#6C63FF"/>
<path d="M477.157 55.5712H464.58V68.3402H477.157V55.5712Z" fill="#6C63FF"/>
<path d="M494.343 55.5712H481.766V68.3402H494.343V55.5712Z" fill="#6C63FF"/>
<path d="M98.9958 78.4563V84.513H94.963C96.2448 82.4507 97.5891 80.4318 98.9958 78.4563Z" fill="#6C63FF"/>
<path opacity="0.2" d="M116.182 71.744H103.605V84.5131H116.182V71.744Z" fill="#6C63FF"/>
<path d="M133.373 71.744H120.797V84.5131H133.373V71.744Z" fill="#6C63FF"/>
<path opacity="0.2" d="M150.559 71.744H137.983V84.5131H150.559V71.744Z" fill="#6C63FF"/>
<path opacity="0.7" d="M167.751 71.744H155.174V84.5131H167.751V71.744Z" fill="#6C63FF"/>
<path opacity="0.2" d="M184.937 71.744H172.36V84.5131H184.937V71.744Z" fill="#6C63FF"/>
<path opacity="0.4" d="M202.128 71.744H189.551V84.5131H202.128V71.744Z" fill="#6C63FF"/>
<path d="M219.319 71.744H206.742V84.5131H219.319V71.744Z" fill="#6C63FF"/>
<path opacity="0.4" d="M236.505 71.744H223.929V84.5131H236.505V71.744Z" fill="#6C63FF"/>
<path opacity="0.2" d="M253.697 71.744H241.12V84.5131H253.697V71.744Z" fill="#6C63FF"/>
<path opacity="0.4" d="M270.883 71.744H258.306V84.5131H270.883V71.744Z" fill="#6C63FF"/>
<path d="M288.074 71.744H275.497V84.5131H288.074V71.744Z" fill="#6C63FF"/>
<path opacity="0.4" d="M305.265 71.744H292.688V84.5131H305.265V71.744Z" fill="#6C63FF"/>
<path opacity="0.4" d="M322.451 71.744H309.875V84.5131H322.451V71.744Z" fill="#6C63FF"/>
<path opacity="0.2" d="M339.642 71.744H327.066V84.5131H339.642V71.744Z" fill="#6C63FF"/>
<path opacity="0.4" d="M356.833 71.744H344.257V84.5131H356.833V71.744Z" fill="#6C63FF"/>
<path opacity="0.4" d="M374.02 71.744H361.443V84.5131H374.02V71.744Z" fill="#6C63FF"/>
<path opacity="0.2" d="M391.211 71.744H378.634V84.5131H391.211V71.744Z" fill="#6C63FF"/>
<path opacity="0.2" d="M408.397 71.744H395.82V84.5131H408.397V71.744Z" fill="#6C63FF"/>
<path opacity="0.4" d="M425.588 71.744H413.012V84.5131H425.588V71.744Z" fill="#6C63FF"/>
<path opacity="0.2" d="M442.779 71.744H430.203V84.5131H442.779V71.744Z" fill="#6C63FF"/>
<path d="M459.966 71.744H447.389V84.5131H459.966V71.744Z" fill="#6C63FF"/>
<path d="M477.157 71.744H464.58V84.5131H477.157V71.744Z" fill="#6C63FF"/>
<path d="M494.343 71.744H481.766V84.5131H494.343V71.744Z" fill="#6C63FF"/>
<path opacity="0.2" d="M64.6135 91.766V100.691H52.0369V96.331C56.1063 94.4808 60.3111 92.9545 64.6135 91.766Z" fill="#6C63FF"/>
<path opacity="0.2" d="M81.8047 88.8828V100.691H69.228V90.6347L81.8047 88.8828Z" fill="#6C63FF"/>
<path d="M98.9909 87.9218H86.4143V100.691H98.9909V87.9218Z" fill="#6C63FF"/>
<path opacity="0.7" d="M116.182 87.9218H103.605V100.691H116.182V87.9218Z" fill="#6C63FF"/>
<path d="M133.373 87.9218H120.797V100.691H133.373V87.9218Z" fill="#6C63FF"/>
<path opacity="0.7" d="M150.559 87.9218H137.983V100.691H150.559V87.9218Z" fill="#6C63FF"/>
<path opacity="0.7" d="M167.751 87.9218H155.174V100.691H167.751V87.9218Z" fill="#6C63FF"/>
<path opacity="0.2" d="M184.937 87.9218H172.36V100.691H184.937V87.9218Z" fill="#6C63FF"/>
<path opacity="0.4" d="M202.128 87.9218H189.551V100.691H202.128V87.9218Z" fill="#6C63FF"/>
<path opacity="0.4" d="M219.319 87.9218H206.742V100.691H219.319V87.9218Z" fill="#6C63FF"/>
<path d="M236.505 87.9218H223.929V100.691H236.505V87.9218Z" fill="#6C63FF"/>
<path opacity="0.2" d="M253.697 87.9218H241.12V100.691H253.697V87.9218Z" fill="#6C63FF"/>
<path opacity="0.4" d="M270.883 87.9218H258.306V100.691H270.883V87.9218Z" fill="#6C63FF"/>
<path d="M288.074 87.9218H275.497V100.691H288.074V87.9218Z" fill="#6C63FF"/>
<path opacity="0.2" d="M305.265 87.9218H292.688V100.691H305.265V87.9218Z" fill="#6C63FF"/>
<path opacity="0.4" d="M322.451 87.9218H309.875V100.691H322.451V87.9218Z" fill="#6C63FF"/>
<path opacity="0.2" d="M339.642 87.9218H327.066V100.691H339.642V87.9218Z" fill="#6C63FF"/>
<path d="M356.833 87.9218H344.257V100.691H356.833V87.9218Z" fill="#6C63FF"/>
<path opacity="0.2" d="M374.02 87.9218H361.443V100.691H374.02V87.9218Z" fill="#6C63FF"/>
<path opacity="0.7" d="M391.211 87.9218H378.634V100.691H391.211V87.9218Z" fill="#6C63FF"/>
<path opacity="0.7" d="M408.397 87.9218H395.82V100.691H408.397V87.9218Z" fill="#6C63FF"/>
<path opacity="0.4" d="M425.588 87.9218H413.012V100.691H425.588V87.9218Z" fill="#6C63FF"/>
<path opacity="0.2" d="M442.779 87.9218H430.203V100.691H442.779V87.9218Z" fill="#6C63FF"/>
<path d="M459.966 87.9218H447.389V100.691H459.966V87.9218Z" fill="#6C63FF"/>
<path d="M477.157 87.9218H464.58V100.691H477.157V87.9218Z" fill="#6C63FF"/>
<path d="M494.343 87.9218H481.766V100.691H494.343V87.9218Z" fill="#6C63FF"/>
<path opacity="0.2" d="M64.6135 104.095H52.0369V116.864H64.6135V104.095Z" fill="#6C63FF"/>
<path opacity="0.2" d="M81.8047 104.095H69.228V116.864H81.8047V104.095Z" fill="#6C63FF"/>
<path opacity="0.2" d="M98.9909 104.095H86.4143V116.864H98.9909V104.095Z" fill="#6C63FF"/>
<path opacity="0.2" d="M116.182 104.095H103.605V116.864H116.182V104.095Z" fill="#6C63FF"/>
<path d="M133.373 104.095H120.797V116.864H133.373V104.095Z" fill="#6C63FF"/>
<path opacity="0.7" d="M150.559 104.095H137.983V116.864H150.559V104.095Z" fill="#6C63FF"/>
<path opacity="0.7" d="M167.751 104.095H155.174V116.864H167.751V104.095Z" fill="#6C63FF"/>
<path opacity="0.2" d="M184.937 104.095H172.36V116.864H184.937V104.095Z" fill="#6C63FF"/>
<path opacity="0.2" d="M202.128 104.095H189.551V116.864H202.128V104.095Z" fill="#6C63FF"/>
<path opacity="0.4" d="M219.319 104.095H206.742V116.864H219.319V104.095Z" fill="#6C63FF"/>
<path opacity="0.4" d="M236.505 104.095H223.929V116.864H236.505V104.095Z" fill="#6C63FF"/>
<path d="M253.697 104.095H241.12V116.864H253.697V104.095Z" fill="#6C63FF"/>
<path opacity="0.2" d="M270.883 104.095H258.306V116.864H270.883V104.095Z" fill="#6C63FF"/>
<path opacity="0.4" d="M288.074 104.095H275.497V116.864H288.074V104.095Z" fill="#6C63FF"/>
<path opacity="0.4" d="M305.265 104.095H292.688V116.864H305.265V104.095Z" fill="#6C63FF"/>
<path opacity="0.4" d="M322.451 104.095H309.875V116.864H322.451V104.095Z" fill="#6C63FF"/>
<path opacity="0.4" d="M339.642 104.095H327.066V116.864H339.642V104.095Z" fill="#6C63FF"/>
<path opacity="0.2" d="M356.833 104.095H344.257V116.864H356.833V104.095Z" fill="#6C63FF"/>
<path opacity="0.2" d="M374.02 104.095H361.443V116.864H374.02V104.095Z" fill="#6C63FF"/>
<path opacity="0.2" d="M391.211 104.095H378.634V116.864H391.211V104.095Z" fill="#6C63FF"/>
<path opacity="0.2" d="M408.397 104.095H395.82V116.864H408.397V104.095Z" fill="#6C63FF"/>
<path opacity="0.7" d="M425.588 104.095H413.012V116.864H425.588V104.095Z" fill="#6C63FF"/>
<path opacity="0.7" d="M442.779 104.095H430.203V116.864H442.779V104.095Z" fill="#6C63FF"/>
<path opacity="0.4" d="M459.966 104.095H447.389V116.864H459.966V104.095Z" fill="#6C63FF"/>
<path opacity="0.2" d="M477.157 104.095H464.58V116.864H477.157V104.095Z" fill="#6C63FF"/>
<path d="M494.343 104.095H481.766V116.864H494.343V104.095Z" fill="#6C63FF"/>
<path opacity="0.2" d="M64.6135 120.272H52.0369V133.041H64.6135V120.272Z" fill="#6C63FF"/>
<path opacity="0.2" d="M81.8047 120.272H69.228V133.041H81.8047V120.272Z" fill="#6C63FF"/>
<path opacity="0.4" d="M98.9909 120.272H86.4143V133.041H98.9909V120.272Z" fill="#6C63FF"/>
<path opacity="0.2" d="M116.182 120.272H103.605V133.041H116.182V120.272Z" fill="#6C63FF"/>
<path opacity="0.2" d="M133.373 120.272H120.797V133.041H133.373V120.272Z" fill="#6C63FF"/>
<path opacity="0.7" d="M150.559 120.272H137.983V133.041H150.559V120.272Z" fill="#6C63FF"/>
<path opacity="0.7" d="M167.751 120.272H155.174V133.041H167.751V120.272Z" fill="#6C63FF"/>
<path opacity="0.2" d="M184.937 120.272H172.36V133.041H184.937V120.272Z" fill="#6C63FF"/>
<path opacity="0.2" d="M202.128 120.272H189.551V133.041H202.128V120.272Z" fill="#6C63FF"/>
<path opacity="0.4" d="M219.319 120.272H206.742V133.041H219.319V120.272Z" fill="#6C63FF"/>
<path d="M236.505 120.272H223.929V133.041H236.505V120.272Z" fill="#6C63FF"/>
<path opacity="0.2" d="M253.697 120.272H241.12V133.041H253.697V120.272Z" fill="#6C63FF"/>
<path d="M270.883 120.272H258.306V133.041H270.883V120.272Z" fill="#6C63FF"/>
<path d="M288.074 120.272H275.497V133.041H288.074V120.272Z" fill="#6C63FF"/>
<path d="M305.265 120.272H292.688V133.041H305.265V120.272Z" fill="#6C63FF"/>
<path opacity="0.2" d="M322.451 120.272H309.875V133.041H322.451V120.272Z" fill="#6C63FF"/>
<path d="M339.642 120.272H327.066V133.041H339.642V120.272Z" fill="#6C63FF"/>
<path opacity="0.2" d="M356.833 120.272H344.257V133.041H356.833V120.272Z" fill="#6C63FF"/>
<path opacity="0.2" d="M374.02 120.272H361.443V133.041H374.02V120.272Z" fill="#6C63FF"/>
<path opacity="0.2" d="M391.211 120.272H378.634V133.041H391.211V120.272Z" fill="#6C63FF"/>
<path opacity="0.2" d="M408.397 120.272H395.82V133.041H408.397V120.272Z" fill="#6C63FF"/>
<path opacity="0.2" d="M425.588 120.272H413.012V133.041H425.588V120.272Z" fill="#6C63FF"/>
<path opacity="0.7" d="M442.779 120.272H430.203V133.041H442.779V120.272Z" fill="#6C63FF"/>
<path opacity="0.2" d="M459.966 120.272H447.389V133.041H459.966V120.272Z" fill="#6C63FF"/>
<path opacity="0.2" d="M477.157 120.272H464.58V133.041H477.157V120.272Z" fill="#6C63FF"/>
<path d="M494.343 120.272H481.766V133.041H494.343V120.272Z" fill="#6C63FF"/>
<path opacity="0.2" d="M64.6135 136.445H52.0369V149.214H64.6135V136.445Z" fill="#6C63FF"/>
<path opacity="0.2" d="M81.8047 136.445H69.228V149.214H81.8047V136.445Z" fill="#6C63FF"/>
<path opacity="0.2" d="M98.9909 136.445H86.4143V149.214H98.9909V136.445Z" fill="#6C63FF"/>
<path opacity="0.4" d="M116.182 136.445H103.605V149.214H116.182V136.445Z" fill="#6C63FF"/>
<path opacity="0.2" d="M133.373 136.445H120.797V149.214H133.373V136.445Z" fill="#6C63FF"/>
<path opacity="0.2" d="M150.559 136.445H137.983V149.214H150.559V136.445Z" fill="#6C63FF"/>
<path opacity="0.7" d="M167.751 136.445H155.174V149.214H167.751V136.445Z" fill="#6C63FF"/>
<path opacity="0.2" d="M184.937 136.445H172.36V149.214H184.937V136.445Z" fill="#6C63FF"/>
<path opacity="0.2" d="M202.128 136.445H189.551V149.214H202.128V136.445Z" fill="#6C63FF"/>
<path opacity="0.2" d="M219.319 136.445H206.742V149.214H219.319V136.445Z" fill="#6C63FF"/>
<path d="M236.505 136.445H223.929V149.214H236.505V136.445Z" fill="#6C63FF"/>
<path opacity="0.2" d="M253.697 136.445H241.12V149.214H253.697V136.445Z" fill="#6C63FF"/>
<path d="M270.883 136.445H258.306V149.214H270.883V136.445Z" fill="#6C63FF"/>
<path d="M288.074 136.445H275.497V149.214H288.074V136.445Z" fill="#6C63FF"/>
<path opacity="0.2" d="M305.265 136.445H292.688V149.214H305.265V136.445Z" fill="#6C63FF"/>
<path opacity="0.2" d="M322.451 136.445H309.875V149.214H322.451V136.445Z" fill="#6C63FF"/>
<path opacity="0.2" d="M339.642 136.445H327.066V149.214H339.642V136.445Z" fill="#6C63FF"/>
<path opacity="0.2" d="M356.833 136.445H344.257V149.214H356.833V136.445Z" fill="#6C63FF"/>
<path opacity="0.2" d="M374.02 136.445H361.443V149.214H374.02V136.445Z" fill="#6C63FF"/>
<path opacity="0.2" d="M391.211 136.445H378.634V149.214H391.211V136.445Z" fill="#6C63FF"/>
<path opacity="0.2" d="M408.397 136.445H395.82V149.214H408.397V136.445Z" fill="#6C63FF"/>
<path opacity="0.2" d="M425.588 136.445H413.012V149.214H425.588V136.445Z" fill="#6C63FF"/>
<path opacity="0.2" d="M442.779 136.445H430.203V149.214H442.779V136.445Z" fill="#6C63FF"/>
<path opacity="0.2" d="M459.966 136.445H447.389V149.214H459.966V136.445Z" fill="#6C63FF"/>
<path opacity="0.4" d="M477.157 136.445H464.58V149.214H477.157V136.445Z" fill="#6C63FF"/>
<path d="M494.343 136.445H481.766V149.214H494.343V136.445Z" fill="#6C63FF"/>
<path opacity="0.7" d="M64.6135 152.623H52.0369V165.392H64.6135V152.623Z" fill="#6C63FF"/>
<path opacity="0.7" d="M81.8047 152.623H69.228V165.392H81.8047V152.623Z" fill="#6C63FF"/>
<path opacity="0.7" d="M98.9909 152.623H86.4143V165.392H98.9909V152.623Z" fill="#6C63FF"/>
<path opacity="0.7" d="M116.182 152.623H103.605V165.392H116.182V152.623Z" fill="#6C63FF"/>
<path opacity="0.7" d="M133.373 152.623H120.797V165.392H133.373V152.623Z" fill="#6C63FF"/>
<path opacity="0.2" d="M150.559 152.623H137.983V165.392H150.559V152.623Z" fill="#6C63FF"/>
<path opacity="0.2" d="M167.751 152.623H155.174V165.392H167.751V152.623Z" fill="#6C63FF"/>
<path opacity="0.2" d="M184.937 152.623H172.36V165.392H184.937V152.623Z" fill="#6C63FF"/>
<path opacity="0.2" d="M202.128 152.623H189.551V165.392H202.128V152.623Z" fill="#6C63FF"/>
<path opacity="0.2" d="M219.319 152.623H206.742V165.392H219.319V152.623Z" fill="#6C63FF"/>
<path opacity="0.2" d="M236.505 152.623H223.929V165.392H236.505V152.623Z" fill="#6C63FF"/>
<path d="M253.697 152.623H241.12V165.392H253.697V152.623Z" fill="#6C63FF"/>
<path opacity="0.2" d="M270.883 152.623H258.306V165.392H270.883V152.623Z" fill="#6C63FF"/>
<path opacity="0.2" d="M288.074 152.623H275.497V165.392H288.074V152.623Z" fill="#6C63FF"/>
<path opacity="0.2" d="M305.265 152.623H292.688V165.392H305.265V152.623Z" fill="#6C63FF"/>
<path d="M322.451 152.623H309.875V165.392H322.451V152.623Z" fill="#6C63FF"/>
<path opacity="0.2" d="M339.642 152.623H327.066V165.392H339.642V152.623Z" fill="#6C63FF"/>
<path opacity="0.2" d="M356.833 152.623H344.257V165.392H356.833V152.623Z" fill="#6C63FF"/>
<path opacity="0.2" d="M374.02 152.623H361.443V165.392H374.02V152.623Z" fill="#6C63FF"/>
<path opacity="0.2" d="M391.211 152.623H378.634V165.392H391.211V152.623Z" fill="#6C63FF"/>
<path opacity="0.2" d="M408.397 152.623H395.82V165.392H408.397V152.623Z" fill="#6C63FF"/>
<path opacity="0.2" d="M425.588 152.623H413.012V165.392H425.588V152.623Z" fill="#6C63FF"/>
<path opacity="0.2" d="M442.779 152.623H430.203V165.392H442.779V152.623Z" fill="#6C63FF"/>
<path opacity="0.2" d="M459.966 152.623H447.389V165.392H459.966V152.623Z" fill="#6C63FF"/>
<path opacity="0.2" d="M477.157 152.623H464.58V165.392H477.157V152.623Z" fill="#6C63FF"/>
<path d="M494.343 152.623H481.766V165.392H494.343V152.623Z" fill="#6C63FF"/>
<path d="M362.124 199.6C371.618 199.6 379.315 191.785 379.315 182.145C379.315 172.506 371.618 164.691 362.124 164.691C352.629 164.691 344.932 172.506 344.932 182.145C344.932 191.785 352.629 199.6 362.124 199.6Z" fill="#4611DD"/>
<path d="M361.231 159.941C362.947 167.543 364.403 175.201 365.599 182.916C365.959 185.209 366.28 187.626 365.461 189.794C364.776 191.601 363.381 193.012 362.286 194.594C361.192 196.176 360.363 198.203 361.029 200.015C361.695 201.827 363.637 202.818 365.491 203.329C370.795 204.78 376.45 203.724 381.73 202.152C384.121 201.528 386.413 200.564 388.539 199.289C390.777 197.848 392.611 195.845 394.297 193.783C401.993 184.308 407.031 172.935 411.774 161.633C408.727 161.914 405.657 161.456 402.819 160.295C399.98 159.134 397.455 157.303 395.451 154.956C393.508 152.638 392.084 149.409 393.178 146.576C389.969 148.363 386.158 148.483 382.702 149.705C380.558 150.536 378.495 151.566 376.539 152.783C374.179 154.168 371.832 155.58 369.499 157.018C366.832 158.65 364.332 160.101 361.231 159.941Z" fill="#FFB8B8"/>
<path d="M397.186 173.045C394.174 178.997 390.254 184.718 384.659 188.262C379.063 191.806 371.53 192.767 365.925 189.263C363.164 187.551 361.073 184.949 358.663 182.756C356.252 180.564 353.24 178.687 350 178.972C346.431 179.287 343.636 182.115 341.245 184.823C337.616 188.938 334.111 193.228 331.542 198.098C326.612 207.458 325.444 218.4 325.661 229.012C325.878 239.624 327.391 250.18 327.426 260.792C327.475 273.846 325.296 286.796 323.092 299.655C343.355 297.122 363.642 302.658 383.949 304.755C396.945 306.112 410.039 306.082 423.104 306.047C425.401 306.047 427.846 305.987 429.759 304.695C430.928 303.829 431.874 302.689 432.515 301.372C434.319 297.993 435.044 294.139 435.547 290.329C436.824 280.709 436.863 270.968 436.898 261.257C436.987 237.732 437.07 214.121 434.127 190.78C433.402 185.039 432.476 179.267 430.306 173.896C428.137 168.525 424.597 163.585 419.648 160.707C416.468 158.855 409.097 155.631 405.35 157.498C401.145 159.581 399.203 169.061 397.186 173.045Z" fill="#4611DD"/>
<path d="M398.685 239.478C397.921 224.962 394.81 209.47 401.431 196.586C403.058 193.423 397.221 189.473 399.025 186.41C401.227 182.675 402.897 178.642 403.985 174.432C404.359 172.985 404.66 171.454 404.305 170.002C403.649 167.354 401.071 165.777 398.882 164.166C396.466 162.384 395.224 156.953 394.445 154.014C393.666 151.076 400.642 154.615 403.447 153.569C407.342 152.122 412.292 153.033 416.177 154.5C418.346 155.311 420.703 155.381 423.015 155.441C427.506 155.561 432.012 155.676 436.469 155.116C438.471 154.86 440.477 154.475 442.489 154.59C447.621 154.885 452.082 158.449 455.119 162.664C458.156 166.879 460.089 171.789 462.579 176.354C464.654 180.158 467.129 183.752 468.899 187.711C470.467 191.215 471.458 194.979 472.439 198.724L474.968 208.329C475.41 209.703 475.62 211.144 475.589 212.589C475.461 214.126 474.79 215.557 474.11 216.924C471.537 221.988 468.453 226.768 464.906 231.184C459.586 237.807 453.128 243.778 449.967 251.707C448.735 254.795 448.05 258.079 447.424 261.352C444.899 274.445 443.105 287.673 442.05 300.971C436.289 298.265 430.251 296.215 424.045 294.859C420.952 294.187 417.825 293.686 414.678 293.358C411.922 293.067 408.368 293.618 405.745 292.857C401.357 291.591 400.874 284.057 400.208 280.113C399.143 273.831 398.931 267.439 398.892 261.092C398.843 253.874 399.064 246.671 398.685 239.478Z" fill="#4C4981"/>
<path d="M302.327 212.334C304.402 224.347 306.69 236.395 311.201 247.683C311.087 247.793 310.974 247.893 310.861 247.993C310.461 248.338 310.047 248.664 309.613 248.994C308.603 249.715 307.493 250.326 306.655 251.267C306.338 251.627 306.087 252.042 305.916 252.493C305.761 252.845 305.681 253.226 305.681 253.612C305.681 253.997 305.761 254.378 305.916 254.73C303.564 255.787 300.833 255.461 298.195 255.361C295.922 255.276 293.719 255.361 291.895 256.627C289.361 258.399 288.596 261.803 288.187 264.897C288.036 266.024 287.906 267.154 287.798 268.285C287.693 269.336 287.607 270.391 287.541 271.449C287.318 274.948 287.287 278.457 287.448 281.96C287.474 282.601 287.509 283.242 287.551 283.882C279.496 283.687 272.155 279.423 265.208 275.278C263.621 274.332 261.984 273.336 260.954 271.774C260.004 270.24 259.602 268.422 259.815 266.623C259.815 266.368 259.859 266.123 259.894 265.863C260.114 264.377 260.493 262.921 261.023 261.518C263.196 255.543 266.399 250.009 270.483 245.175C272.248 243.083 274.235 241.035 275.058 238.407C275.418 237.261 275.551 236.045 275.916 234.904C277.553 229.958 283.459 227.621 285.481 222.82C285.974 221.674 286.2 220.418 286.812 219.316C287.362 218.401 288.072 217.596 288.907 216.939C289.267 216.633 289.642 216.338 290.011 216.043C293.476 213.286 296.813 210.375 300.024 207.308C300.622 206.738 301.214 206.16 301.799 205.576C301.721 207.842 301.898 210.109 302.327 212.334Z" fill="#4C4981"/>
<path d="M352.007 176.805C351.297 177.565 350.528 178.281 349.774 178.992L349.572 179.177L348.773 179.928C347.323 181.198 346.069 182.681 345.051 184.328L344.967 184.468C342.452 189.038 343.384 194.664 344.084 199.855C344.953 206.323 345.343 212.849 345.253 219.376C345.125 228.386 344.079 237.336 344.06 246.336C344.06 248.378 344.104 250.415 344.193 252.458C344.336 255.776 344.582 259.09 344.878 262.404C345.199 266.038 345.583 269.667 345.943 273.296C346.229 276.104 346.5 278.907 346.727 281.71C346.84 283.162 346.949 284.608 347.037 286.06C347.141 287.762 347.225 289.468 347.274 291.17C347.309 292.252 347.328 293.328 347.328 294.409C347.328 295.025 347.328 295.635 347.328 296.246C347.328 297.417 347.297 298.585 347.235 299.75C347.169 301.248 347.069 302.75 346.934 304.255C346.781 305.892 346.51 307.678 345.376 308.83C345.307 308.9 345.233 308.965 345.159 309.03L343.562 308.83C332.55 307.491 321.434 307.29 310.382 308.229C310.624 306.537 310.846 304.85 311.063 303.154C311.161 302.353 311.26 301.547 311.354 300.741C311.462 299.82 311.566 298.899 311.664 297.978C311.778 296.977 311.881 295.976 311.98 294.975C312.236 292.395 312.461 289.814 312.655 287.231C312.941 283.464 313.158 279.689 313.306 275.909C313.378 274.103 313.434 272.296 313.474 270.488C313.529 268.245 313.556 266.001 313.552 263.755C313.552 261.573 313.534 259.387 313.498 257.198C313.498 256.477 313.469 255.756 313.409 255.041C313.367 254.396 313.28 253.755 313.148 253.123C312.782 251.666 312.287 250.246 311.669 248.879C311.561 248.619 311.457 248.378 311.354 248.103C311.294 247.968 311.24 247.828 311.186 247.692C314.026 245.125 316.047 241.686 317.99 238.302C321.14 232.851 324.364 227.16 324.892 220.863C325.419 214.566 322.338 207.493 316.412 205.571C314.8 205.071 313.094 204.93 311.433 204.635C309.865 204.355 306.596 203.719 304.782 202.578C303.796 203.606 302.81 204.615 301.824 205.606C301.884 204.094 302.248 202.61 302.894 201.246L303.594 201.281C303.537 201.121 303.51 200.951 303.515 200.781C303.515 200.245 303.88 199.64 304.659 198.969C306.981 196.967 310.634 196.521 312.098 193.813C312.709 192.687 312.813 191.346 313.306 190.164C314.721 186.796 318.783 185.554 321.229 182.861C323.674 180.168 324.285 176.354 326.262 173.351C327.739 171.158 329.787 169.424 332.178 168.345C332.375 168.25 332.578 168.155 332.78 168.07C336.872 166.293 341.733 165.888 345.973 165.898C347.619 165.898 351.889 165.948 353.979 166.794C354.318 166.916 354.628 167.109 354.891 167.359C357.119 169.822 353.654 175.023 352.007 176.805Z" fill="#4C4981"/>
<path d="M303.061 200.896C306.87 199.732 310.868 199.348 314.824 199.767C318.78 200.185 322.614 201.398 326.104 203.334C329.654 205.336 332.839 208.129 334.791 211.733C337.725 217.139 337.596 223.656 337.389 229.828C337.286 232.916 337.153 236.115 335.812 238.888C334.259 242.096 331.33 244.299 328.343 246.101C326.471 247.313 324.421 248.214 322.269 248.769C318.956 249.499 315.515 248.879 312.177 248.268C308.548 247.587 304.654 246.766 302.134 244.023C300.655 242.432 299.847 240.364 299.048 238.342C297.901 235.422 296.751 232.506 295.597 229.593C293.6 224.532 292.925 220.322 295.563 215.392C296.761 213.144 298.225 211.042 299.408 208.78C300 207.628 302.12 201.191 303.061 200.896Z" fill="#4C4981"/>
<path d="M510.262 287.426V302.393C500.149 306.658 489.301 308.836 478.35 308.8H345.391C345.322 308.87 345.248 308.935 345.174 309L343.577 308.8H107.066C87.2228 308.8 68.8336 303.364 53.7525 294.104V271.253L167.499 257.924H167.588L233.828 263.62L250.97 265.122L259.874 265.887L278.302 267.474L287.783 268.29L301.587 269.481L303.53 269.647L313.479 270.503L326.977 271.629L345.958 273.261L377.599 275.989L399.858 277.906L436.41 281.054L443.361 281.65L444.111 281.715L444.761 281.77L453.941 282.561L464.018 283.432L465.187 283.532L510.262 287.426Z" fill="#504F60"/>
<path d="M376.657 286.876L234.109 262.173L228.583 290.55L293.926 298.493L314.045 301.051L369.39 289.984L376.657 286.876Z" fill="#9C9CA1"/>
<path d="M302.869 299.63L374.286 286C374.643 285.93 375.011 285.942 375.364 286.034C375.716 286.126 376.044 286.296 376.324 286.532C376.604 286.768 376.829 287.064 376.983 287.398C377.137 287.733 377.216 288.098 377.214 288.467C377.216 289.053 377.015 289.621 376.647 290.072C376.278 290.523 375.765 290.828 375.198 290.935L305.452 304.195L302.869 299.63Z" fill="#9C9CA1"/>
<path d="M333.85 256.767C336.073 256.557 338.326 256.202 340.328 255.201C342.793 253.954 344.711 251.807 346.993 250.225C352.012 246.721 358.727 246.251 364.48 248.263C370.233 250.275 375.035 254.585 378.398 259.731C380.631 263.16 382.307 267.534 380.73 271.319C380.188 272.475 379.506 273.558 378.698 274.542L374.587 279.998C373.806 281.145 372.866 282.172 371.796 283.046C370.258 284.183 368.345 284.648 366.462 284.929C361.458 285.669 356.365 285.249 351.322 285.589C342.66 286.175 334.2 289.008 325.518 288.913C320.528 288.858 315.603 287.837 310.728 286.816L289.149 282.311C285.392 281.53 281.147 280.389 279.377 276.93C278.583 275.373 278.436 273.571 278.342 271.819C278.086 266.994 278.342 261.628 281.635 258.149C284.731 254.885 289.627 253.854 293.324 251.442C297.85 248.483 299.344 249.439 304.116 251.662C313.427 255.943 323.67 257.702 333.85 256.767Z" fill="#FFB8B8"/>
<path opacity="0.05" d="M333.85 256.767C336.073 256.557 338.326 256.202 340.328 255.201C342.793 253.954 344.711 251.807 346.993 250.225C352.012 246.721 358.727 246.251 364.48 248.263C370.233 250.275 375.035 254.585 378.398 259.731C380.631 263.16 382.307 267.534 380.73 271.319C380.188 272.475 379.506 273.558 378.698 274.542L374.587 279.998C373.806 281.145 372.866 282.172 371.796 283.046C370.258 284.183 368.345 284.648 366.462 284.929C361.458 285.669 356.365 285.249 351.322 285.589C342.66 286.175 334.2 289.008 325.518 288.913C320.528 288.858 315.603 287.837 310.728 286.816L289.149 282.311C285.392 281.53 281.147 280.389 279.377 276.93C278.583 275.373 278.436 273.571 278.342 271.819C278.086 266.994 278.342 261.628 281.635 258.149C284.731 254.885 289.627 253.854 293.324 251.442C297.85 248.483 299.344 249.439 304.116 251.662C313.427 255.943 323.67 257.702 333.85 256.767Z" fill="black"/>
<path d="M420.505 249.905C414.451 252.283 408.363 254.67 402.023 256.087C391.393 258.464 380.271 258.089 369.726 260.807C364.155 262.249 358.618 264.571 352.894 264.101C350.336 263.89 347.866 263.1 345.376 262.499C331.389 258.995 315.49 260.131 304.131 269.141C300.246 272.22 297.066 276.059 294.182 280.153C293.565 281.038 293.148 282.05 292.961 283.117C292.773 284.184 292.821 285.28 293.099 286.326C293.377 287.372 293.88 288.343 294.571 289.169C295.262 289.996 296.124 290.657 297.096 291.105C301.513 293.168 306.245 294.449 311.087 294.894C317.561 295.475 324.063 294.544 330.502 293.613C340.057 292.237 349.616 290.855 359.146 289.308C362.567 288.753 365.989 288.177 369.43 287.737C394.194 284.558 419.406 288.422 444.234 285.769C446.743 285.499 449.297 285.149 451.58 284.063C457.358 281.31 460.217 274.052 459.024 267.675C457.831 261.298 453.226 255.997 447.685 252.743C443.041 250.005 438.032 248.899 432.86 247.738C428.058 246.601 425.13 248.103 420.505 249.905Z" fill="#FFB8B8"/>
<path opacity="0.1" d="M473.617 211.783C476.348 215.417 476.93 220.292 476.634 224.842C476.338 229.392 475.273 233.892 475.116 238.462C474.899 244.729 476.388 250.976 476.136 257.223C475.959 261.593 474.938 265.878 473.73 270.072C472.306 275.023 470.245 280.343 465.744 282.721C459.768 285.88 447.236 284.103 440.95 286.575C441.522 282.956 447.004 277.716 447.576 274.097C447.971 271.594 448.37 269.021 447.946 266.513C447.404 263.315 445.555 260.477 443.361 258.114C439.871 254.355 435.315 251.527 430.311 250.606C425.307 249.685 413.056 250.441 409.053 253.649C408.56 250.335 417.73 247.142 420.954 246.426C422.561 246.061 424.405 246.266 425.692 245.23C428.157 243.268 426.367 239.358 426.486 236.22C426.579 233.717 428.019 231.425 428.31 228.922C428.803 224.917 426.229 220.838 427.24 216.909C427.615 215.457 428.448 214.181 429.025 212.799C430.78 208.569 430.011 203.744 429.074 199.249C428.492 196.426 427.925 193.243 429.473 190.835C430.908 188.588 434.98 196.591 437.588 196.221C446.201 194.995 453.995 188.512 460.952 193.818C464.496 196.521 464.96 199.324 466.375 203.184C467.75 206.858 471.315 208.74 473.617 211.783Z" fill="black"/>
<path d="M475.096 211.783C477.827 215.417 478.409 220.292 478.113 224.842C477.817 229.392 476.753 233.892 476.595 238.462C476.378 244.729 477.867 250.976 477.615 257.223C477.438 261.593 476.417 265.878 475.209 270.072C473.785 275.023 471.724 280.344 467.223 282.721C461.247 285.88 448.715 284.103 442.429 286.575C443.001 282.956 448.484 277.716 449.055 274.097C449.45 271.594 449.849 269.021 449.425 266.513C448.883 263.315 447.034 260.477 444.84 258.114C441.35 254.355 436.794 251.527 431.79 250.606C426.786 249.685 414.535 250.441 410.532 253.649C410.039 250.336 419.209 247.142 422.433 246.426C424.04 246.061 425.884 246.266 427.171 245.23C429.636 243.268 427.846 239.358 427.965 236.22C428.058 233.717 429.498 231.425 429.789 228.922C430.282 224.918 427.708 220.838 428.719 216.909C429.094 215.457 429.927 214.181 430.504 212.799C432.259 208.57 431.49 203.744 430.553 199.249C429.971 196.426 429.404 193.243 430.952 190.835C432.387 188.588 435.192 187.737 437.8 187.361C446.532 186.162 455.38 188.48 462.45 193.818C465.995 196.521 466.459 199.324 467.874 203.184C469.229 206.858 472.794 208.74 475.096 211.783Z" fill="#4C4981"/>
<path d="M148.888 188.067L175.693 288.648C176.022 289.88 176.713 290.981 177.674 291.805C178.635 292.628 179.82 293.135 181.072 293.258L301.72 305.026C302.704 305.122 303.695 304.978 304.612 304.605C305.529 304.232 306.345 303.641 306.991 302.882C307.637 302.124 308.094 301.219 308.325 300.243C308.556 299.268 308.553 298.251 308.317 297.277L278.963 175.954C278.614 174.512 277.772 173.242 276.588 172.37C275.404 171.499 273.953 171.082 272.495 171.193L154.375 180.163C153.468 180.235 152.588 180.509 151.797 180.965C151.007 181.422 150.325 182.05 149.801 182.805C149.277 183.56 148.923 184.423 148.766 185.332C148.608 186.242 148.65 187.176 148.888 188.067Z" fill="#9C9CA1"/>
<path d="M388.051 207.693C395.375 207.693 401.313 201.587 401.313 194.053C401.313 186.52 395.375 180.413 388.051 180.413C380.726 180.413 374.789 186.52 374.789 194.053C374.789 201.587 380.726 207.693 388.051 207.693Z" fill="white"/>
<path d="M398.941 169.171C398.941 169.171 401.737 177.61 393.489 181.159L392.434 183.031L397.6 188.207C397.6 188.207 403.97 176.409 403.28 172.22C403.28 172.22 402.294 167.965 398.941 169.171Z" fill="white"/>
<path d="M389.574 207.693C396.637 207.693 402.363 201.88 402.363 194.709C402.363 187.538 396.637 181.725 389.574 181.725C382.511 181.725 376.786 187.538 376.786 194.709C376.786 201.88 382.511 207.693 389.574 207.693Z" fill="#6C63FF"/>
<path d="M403.344 174.137L401.313 170.733L398.355 170.307C398.986 159.1 396.121 155.761 396.121 155.761L395.456 155.696L392.557 155.411L387.104 149.665V148.033C394.765 148.959 399 152.653 401.288 156.983C405.331 164.581 403.344 174.137 403.344 174.137Z" fill="#6C63FF"/>
<path opacity="0.1" d="M395.48 153.634V155.696L392.581 155.411L387.129 149.665C387.129 149.665 395.564 151.582 395.48 153.634Z" fill="black" stroke="#4C4981" stroke-miterlimit="10"/>
<path opacity="0.1" d="M403.344 174.137L401.313 170.733V157.003C405.331 164.581 403.344 174.137 403.344 174.137Z" fill="black" stroke="#4C4981" stroke-miterlimit="10"/>
<path d="M365.943 200.047C369.345 198.052 369.199 191.327 365.616 185.026C362.032 178.725 356.369 175.233 352.967 177.228C349.564 179.222 349.71 185.948 353.294 192.249C356.877 198.55 362.54 202.041 365.943 200.047Z" fill="white"/>
<path d="M361.374 187.536C364.958 193.838 369.356 198.048 365.954 200.05C362.552 202.052 352.643 201.051 349.059 194.744C345.475 188.437 348.728 179.728 352.13 177.726C355.532 175.723 357.785 181.219 361.374 187.536Z" fill="#6C63FF"/>
<path opacity="0.1" d="M393.286 142.136C393.286 162.273 379.714 181.68 359.88 181.68C350.355 181.68 341.22 177.838 334.484 170.999C327.749 164.161 323.965 154.886 323.965 145.215C323.965 135.544 327.749 126.269 334.484 119.43C341.22 112.591 350.355 108.75 359.88 108.75C379.714 108.77 393.286 121.994 393.286 142.136Z" fill="black"/>
<path d="M359.88 180.699C379.716 180.699 395.796 164.373 395.796 144.234C395.796 124.095 379.716 107.769 359.88 107.769C340.045 107.769 323.965 124.095 323.965 144.234C323.965 164.373 340.045 180.699 359.88 180.699Z" fill="#FFB8B8"/>
<path d="M356.725 128.076C360.999 129.673 363.529 134.158 367.364 136.655C372.787 140.159 379.847 139.253 386.039 137.521C389.49 136.565 393.099 135.399 396.496 136.46C396.996 136.685 397.547 136.765 398.088 136.69C398.828 136.475 399.193 135.644 399.434 134.903C403.635 122.189 401.747 107.789 395.406 96.0257C393.77 92.9924 391.807 90.0591 389.106 87.9518C386.976 86.295 384.472 85.2088 381.947 84.2828C377.334 82.6007 372.563 81.4048 367.709 80.7139C366.852 80.5557 365.977 80.5271 365.111 80.6288C363.923 80.824 362.858 81.4747 361.798 82.0553C357.258 84.5261 352.224 85.9144 347.077 86.1148C340.175 86.3801 332.287 84.7283 326.967 89.2232C320.558 94.6142 322.155 105.131 317.999 112.449C315.248 117.289 309.944 120.803 309.071 126.314C308.844 127.998 308.949 129.712 309.382 131.355C311.413 139.834 319.498 146.401 328.116 146.556C329.439 146.659 330.765 146.383 331.942 145.76C332.713 145.226 333.394 144.569 333.958 143.813C339.603 137.026 346.061 124.092 356.725 128.076Z" fill="#444053"/>
<path opacity="0.1" d="M399.434 131.214C399.193 131.955 398.828 132.786 398.088 133.001C397.547 133.075 396.996 132.996 396.496 132.771C393.099 131.71 389.471 132.876 386.044 133.832C379.847 135.564 372.772 136.49 367.369 132.966C363.529 130.464 361.004 125.959 356.725 124.387C346.061 120.382 339.603 133.337 333.943 140.124C333.379 140.879 332.698 141.537 331.927 142.071C330.75 142.694 329.425 142.97 328.101 142.867C319.513 142.712 311.423 136.145 309.367 127.665C309.253 127.165 309.155 126.664 309.081 126.164C309.081 126.209 309.081 126.249 309.056 126.294C308.829 127.978 308.935 129.692 309.367 131.334C311.398 139.814 319.488 146.381 328.101 146.536C329.425 146.639 330.75 146.363 331.927 145.74C332.698 145.206 333.379 144.548 333.943 143.793C339.603 137.006 346.061 124.071 356.725 128.056C361.004 129.653 363.529 134.138 367.369 136.635C372.792 140.139 379.847 139.233 386.044 137.501C389.495 136.545 393.099 135.379 396.496 136.44C396.996 136.665 397.547 136.744 398.088 136.67C398.828 136.455 399.193 135.624 399.434 134.883C401.128 129.681 401.877 124.21 401.643 118.736C401.498 122.981 400.754 127.183 399.434 131.214Z" fill="black"/>
</g>
<defs>
<clipPath id="clip0">
<rect width="564" height="309" fill="white"/>
</clipPath>
</defs>
</svg>
